<?xml version="1.0" encoding="UTF-8"?>
<svg width="790px" height="790px" viewBox="0 0 790 790" version="1.1" xmlns="http://www.w3.org/2000/svg" xmlns:xlink="http://www.w3.org/1999/xlink">
    <!-- Generator: Sketch 64 (93537) - https://sketch.com -->
    <title>magic</title>
    <desc>Created with Sketch.</desc>
    <defs>
        <circle id="path-1" cx="387" cy="387" r="387"></circle>
        <filter x="-1.4%" y="-1.7%" width="102.6%" height="103.4%" filterUnits="objectBoundingBox" id="filter-3">
            <feOffset dx="0" dy="1" in="SourceAlpha" result="shadowOffsetOuter1"></feOffset>
            <feColorMatrix values="0 0 0 0 0.496178668   0 0 0 0 0.432369411   0 0 0 0 0.432369411  0 0 0 1 0" type="matrix" in="shadowOffsetOuter1" result="shadowMatrixOuter1"></feColorMatrix>
            <feMerge>
                <feMergeNode in="shadowMatrixOuter1"></feMergeNode>
                <feMergeNode in="SourceGraphic"></feMergeNode>
            </feMerge>
        </filter>
        <linearGradient x1="50%" y1="0%" x2="50%" y2="100%" id="linearGradient-4">
            <stop stop-color="#30F6D7" offset="0%"></stop>
            <stop stop-color="#B1D7D1" offset="26.8997313%"></stop>
            <stop stop-color="#B1D7D1" offset="100%"></stop>
        </linearGradient>
        <filter x="-2.6%" y="-1.7%" width="105.1%" height="103.4%" filterUnits="objectBoundingBox" id="filter-5">
            <feOffset dx="0" dy="1" in="SourceAlpha" result="shadowOffsetOuter1"></feOffset>
            <feColorMatrix values="0 0 0 0 0.496178668   0 0 0 0 0.432369411   0 0 0 0 0.432369411  0 0 0 1 0" type="matrix" in="shadowOffsetOuter1" result="shadowMatrixOuter1"></feColorMatrix>
            <feMerge>
                <feMergeNode in="shadowMatrixOuter1"></feMergeNode>
                <feMergeNode in="SourceGraphic"></feMergeNode>
            </feMerge>
        </filter>
        <path d="M236.341615,6.54416826 L143.052771,220.214714 C142.743201,220.923813 142.052386,221.390725 141.278997,221.413606 C120.747105,222.02104 90.9163213,205.934582 51.7866456,173.154232 C12.442032,140.193821 -4.29843507,112.917108 1.56524427,91.3240914 C1.73291589,90.7065976 2.1859238,90.2066124 2.78392939,89.9790127 L232.525119,2.53999225 C234.073611,1.95063922 235.806677,2.72817538 236.39603,4.27666787 C236.675325,5.0104985 236.655789,5.82457958 236.341615,6.54416826 Z" id="path-6"></path>
        <polygon id="path-8" points="89.9738483 134.321348 77.9374641 140.659005 80.2394123 127.241725 70.5056112 117.742541 83.9613531 115.781539 89.9819174 103.573063 95.996075 115.778377 109.450789 117.732309 99.7120014 127.236609 102.006908 140.652681"></polygon>
        <polygon id="path-10" points="131.829677 93 156.797419 128.910156 131.829677 150.652344 106.861935 128.910156"></polygon>
        <filter x="-1.0%" y="-2.6%" width="102.0%" height="103.5%" filterUnits="objectBoundingBox" id="filter-11">
            <feOffset dx="0" dy="-1" in="SourceAlpha" result="shadowOffsetOuter1"></feOffset>
            <feColorMatrix values="0 0 0 0 0.812386775   0 0 0 0 0.509840682   0 0 0 0 0.312833924  0 0 0 0.66 0" type="matrix" in="shadowOffsetOuter1"></feColorMatrix>
        </filter>
    </defs>
    <g id="Page-1" stroke="none" stroke-width="1" fill="none" fill-rule="evenodd">
        <g id="magic" transform="translate(8.000000, 8.000000)">
            <mask id="mask-2" fill="white">
                <use xlink:href="#path-1"></use>
            </mask>
            <circle stroke="#04246C" stroke-width="8" cx="387" cy="387" r="391"></circle>
            <rect id="Rectangle-Copy-8" fill="#FFEDED" mask="url(#mask-2)" x="0" y="0" width="773.00129" height="774"></rect>
            <g id="body" mask="url(#mask-2)" fill="#A97C60">
                <g transform="translate(135.239392, 113.000000)">
                    <ellipse id="Oval" cx="234.696774" cy="255" rx="179.767742" ry="180"></ellipse>
                    <path d="M234.696774,240 C367.074084,240 473.513741,132.54834 473.513741,-4.54747351e-13 C401.606644,48 322.000988,73 234.696774,75 C147.441135,73 69.2733187,48 0.19332526,-4.54747351e-13 C0.19332526,132.54834 102.319464,240 234.696774,240 Z" id="ears"></path>
                </g>
            </g>
            <g id="table" mask="url(#mask-2)">
                <g transform="translate(6.405844, 453.000000)">
                    <rect id="table" fill="#C4D8DB" x="0" y="0" width="764.012903" height="323"></rect>
                    <g id="book" stroke-width="1" fill="none" transform="translate(214.308995, 1.000000)">
                        <g id="hardback" transform="translate(0.818226, 18.641391)">
                            <ellipse id="Oval" fill="#E02020" transform="translate(217.079212, 185.500424) rotate(-8.000000) translate(-217.079212, -185.500424) " cx="217.079212" cy="185.500424" rx="14.4816527" ry="5.49986316"></ellipse>
                            <path d="M191.919284,24.3103645 L34.620491,37.5936371 L4.86556162,205.468326 L211.261043,183.843671 L191.919284,24.3103645 Z" id="Rectangle" stroke="#E02020" stroke-width="8" fill="#E5786D"></path>
                            <path d="M214.331667,5.09185228 L209.245268,180.694932 L426.598253,186.412377 L382.371183,30.0475978 L214.331667,5.09185228 Z" id="Rectangle-Copy-6" stroke="#E02020" stroke-width="8" fill="#E5786D"></path>
                            <ellipse id="Oval-Copy" fill="#E5786D" cx="215.581147" cy="183.000424" rx="11.9845161" ry="4"></ellipse>
                        </g>
                        <g id="right" transform="translate(194.748387, 0.000000)" fill="#FFFCE5" stroke="#CEB8A9">
                            <path d="M172.228102,32.8253207 C126.973765,18.4955937 88.226379,13.0478996 55.984918,16.499113 C39.8601673,18.22515 27.2754395,20.796972 18.232955,24.2227009 C9.41703469,27.5625964 3.97768151,31.692949 2.00963346,36.6878586 L22.0459609,200.10738 C37.8118907,189.040783 56.9234225,183.5 79.3857733,183.5 C97.2342799,183.5 145.438677,189.128835 223.998797,200.392917 L172.228102,32.8253207 Z" id="Rectangle-Copy-3"></path>
                            <path d="M167.324474,25.1205288 C123.919807,9.68238816 86.1003349,3.67937308 53.8646106,7.12997235 C37.7732381,8.85243646 25.3872656,12.1898177 16.7142674,17.1620465 C8.17489394,22.0576684 3.25773949,28.539178 2.00279756,36.6314542 L22.0242132,198.396076 C36.8508006,184.382613 63.11354,177.330078 100.863883,177.330078 C115.109023,177.330078 154.156455,182.882704 218.005886,193.997461 L167.324474,25.1205288 Z" id="Rectangle-Copy-2"></path>
                            <path d="M162.510294,19.8854286 C115.505649,4.71472803 75.8821085,-1.15445942 43.638546,2.29697887 C27.5914917,4.01469904 16.0752558,7.72946274 9.11478573,13.4887569 C5.68829329,16.3239358 3.37674718,19.654235 2.18817714,23.4848562 C0.993159329,27.3362577 0.932581494,31.6883909 1.99152975,36.540201 L21.9949613,199.696858 C29.5264678,189.783803 40.3896383,182.585861 54.5957696,178.117776 C76.5061311,171.22657 81.7466925,170.87549 117.680937,172.057902 C134.378751,172.607342 165.490142,177.63243 211.014558,187.140196 L162.510294,19.8854286 Z" id="top"></path>
                        </g>
                        <g id="left" transform="translate(12.983226, 5.000000)" fill="#FFFCE5" stroke="#CEB8A9">
                            <path d="M79.1625616,13.4990251 C53.5986596,13.4990251 34.5780795,17.3811588 22.1173784,25.1893079 L0.602260299,195.223345 C7.83903259,192.468572 21.6909243,190.130137 42.1640182,188.226756 C66.9707894,185.920474 120.530046,191.838603 202.842409,206.000173 L183.475347,39.1979869 C139.659853,22.0723401 104.889847,13.4990251 79.1625616,13.4990251 Z" id="Rectangle-Copy" transform="translate(101.708074, 109.802662) scale(-1, 1) translate(-101.708074, -109.802662) "></path>
                            <path d="M87.1774457,10.494637 C68.1749695,9.42160492 49.169888,14.4737035 30.1591899,25.6371926 L8.7220102,194.615822 C12.669169,190.924938 19.5873138,186.881955 29.4919801,182.505546 C49.7212679,173.567169 107.491408,181.327089 202.851129,205.943753 L186.397959,34.0202511 C139.350426,19.4194721 106.277475,11.5731778 87.1774457,10.494637 Z" id="Rectangle-Copy-5" transform="translate(105.729610, 108.229955) scale(-1, 1) translate(-105.729610, -108.229955) "></path>
                            <path d="M188.924181,28.8411425 C135.517741,13.9086868 95.9671928,9.86134236 70.2775116,16.7537651 C57.4223746,20.202739 48.1169936,23.3664958 42.3641829,26.2517135 C39.5587453,27.6587297 37.6100496,28.987642 36.5356763,30.2581065 C36.0517082,30.8304068 35.7518707,31.383532 35.6579609,31.9265631 C35.5623566,32.4793933 35.6914938,33.0132052 36.0321038,33.5302035 L14.6744965,194.450334 C23.1497623,185.120383 32.5226729,179.237231 42.7843702,176.785175 C65.7204883,171.304538 119.288593,179.015358 203.498123,199.987571 L188.924181,28.8411425 Z" id="Rectangle-Copy-4" transform="translate(109.010042, 106.820420) scale(-1, 1) translate(-109.010042, -106.820420) "></path>
                            <path d="M92.5200608,1.18549064 C68.1505618,1.18549064 50.8784545,8.84407286 40.7535379,24.238816 L20.724355,189.864929 C22.6039039,185.02869 25.4901027,181.061108 29.3774985,177.958695 C34.7523075,173.669223 42.0531261,171.032575 51.2911337,170.072988 C91.7994092,165.86524 142.532233,173.149141 203.488615,191.943378 L187.926711,24.4142401 C148.850121,8.93483876 117.048801,1.18549064 92.5200608,1.18549064 Z" id="page-L" transform="translate(111.767221, 98.342745) scale(-1, 1) translate(-111.767221, -98.342745) "></path>
                        </g>
                    </g>
                </g>
            </g>
            <g id="wings" mask="url(#mask-2)">
                <g transform="translate(45.441290, 163.464102)">
                    <g id="wing-L-with-wand" filter="url(#filter-3)" transform="translate(126.836129, 145.000000) scale(-1, 1) rotate(240.000000) translate(-126.836129, -145.000000) translate(2.996129, 71.000000)">
                        <path d="M57.9251613,123 C67.5776735,123 57.9251613,98.6766786 57.9251613,55.3223258 C57.9251613,11.9679729 58.5659836,11.6591797 47.1583345,15.65625 C35.7506855,19.6533203 27.3001596,15.1818963 30.96,53.6113281 C34.0156225,85.6962891 48.2726491,123 57.9251613,123 Z" id="Oval" fill="#714040"></path>
                        <path d="M79.4055116,138.573448 C89.0583998,138.571315 79.4108787,114.251073 79.4204452,70.8984068 C79.4300117,27.5457408 76.2059327,1.57949183 66.5530445,1.58162449 C56.9001563,1.58375714 53.6053467,27.5514464 53.595776,70.9041124 C53.5862137,114.256778 69.7526233,138.575581 79.4055116,138.573448 Z" id="Oval-Copy-11" fill="#714040" transform="translate(68.646603, 70.077536) rotate(-10.000000) translate(-68.646603, -70.077536) "></path>
                        <g id="wand" transform="translate(123.840000, 99.500000) rotate(90.000000) translate(-123.840000, -99.500000) translate(107.361290, -24.500000)">
                            <rect id="Rectangle" fill="url(#linearGradient-4)" x="8.71152197" y="0.905789871" width="15.9793548" height="220" rx="7.98967742"></rect>
                            <polygon id="Triangle" fill="#B1D7D1" points="16.7011994 162.90579 32.6805542 247.90579 0.721844553 247.90579"></polygon>
                            <ellipse id="Oval" fill="#B1D7D1" cx="16.9780645" cy="191" rx="13.9819355" ry="14"></ellipse>
                        </g>
                        <path d="M107.162515,145.902346 C116.815974,145.899042 96.0304161,133.629288 102.984542,82.1458759 C109.938669,30.6624639 112.869268,16.8177135 103.215808,16.8210172 C93.5623484,16.824322 78.991866,35.5612931 78.977035,78.9113958 C78.9622218,122.261498 97.509055,145.90565 107.162515,145.902346 Z" id="Oval-Copy-12" fill="#714040" transform="translate(94.372941, 81.361682) rotate(-16.000000) translate(-94.372941, -81.361682) "></path>
                        <ellipse id="Oval" fill="#714040" cx="62.9187097" cy="32" rx="31.9587097" ry="32"></ellipse>
                    </g>
                    <g id="wing-R" filter="url(#filter-5)" transform="translate(466.311650, 189.535898)">
                        <path d="M27.963871,123 C37.6163831,123 27.963871,98.6766786 27.963871,55.3223258 C27.963871,11.9679729 28.6046933,11.6591797 17.1970442,15.65625 C5.78939516,19.6533203 -2.66113071,15.1818963 0.998709677,53.6113281 C4.05433216,85.6962891 18.3113588,123 27.963871,123 Z" id="Oval" fill="#714040"></path>
                        <path d="M49.4442212,138.573448 C59.0971095,138.571315 49.4495884,114.251073 49.4591549,70.8984068 C49.4687214,27.5457408 46.2446424,1.57949183 36.5917542,1.58162449 C26.938866,1.58375714 23.6440564,27.5514464 23.6344856,70.9041124 C23.6249234,114.256778 39.791333,138.575581 49.4442212,138.573448 Z" id="Oval-Copy-15" fill="#714040" transform="translate(38.685313, 70.077536) rotate(-10.000000) translate(-38.685313, -70.077536) "></path>
                        <path d="M77.2012243,145.902346 C86.854684,145.899042 66.0691258,133.629288 73.023252,82.1458759 C79.9773783,30.6624639 82.9079774,16.8177135 73.2545177,16.8210172 C63.6010581,16.824322 49.0305757,35.5612931 49.0157447,78.9113958 C49.0009314,122.261498 67.5477647,145.90565 77.2012243,145.902346 Z" id="Oval-Copy-16" fill="#714040" transform="translate(64.411650, 81.361682) rotate(-16.000000) translate(-64.411650, -81.361682) "></path>
                        <ellipse id="Oval" fill="#714040" cx="32.9574194" cy="32" rx="31.9587097" ry="32"></ellipse>
                    </g>
                </g>
            </g>
            <g id="hat" mask="url(#mask-2)">
                <g transform="translate(401.042424, 94.646447)">
                    <g id="shtuchka" stroke="none" stroke-width="1" fill="none" fill-rule="evenodd" transform="translate(215.575033, 3.353553)">
                        <rect id="Rectangle" stroke="#F8B702" fill="#FFF457" x="14.9806452" y="0" width="5.99225806" height="120" rx="2.99612903"></rect>
                        <polygon id="Triangle" stroke="#F7B500" fill="#FFF457" points="17.4774194 117 34.9548387 181 0 181"></polygon>
                        <ellipse id="Oval" stroke="#F7B500" fill="#FFF457" cx="17.9767742" cy="129" rx="11.9845161" ry="12"></ellipse>
                    </g>
                    <mask id="mask-7" fill="white">
                        <use xlink:href="#path-6"></use>
                    </mask>
                    <use id="hat" stroke="#843CB3" stroke-width="1" fill="#843CB3" fill-rule="evenodd" xlink:href="#path-6"></use>
                    <g id="stars" stroke="none" stroke-width="1" fill="none" fill-rule="evenodd" mask="url(#mask-7)">
                        <g transform="translate(24.821484, -2.175971)">
                            <polygon id="Star" stroke="none" fill="#FFF457" fill-rule="evenodd" points="26.9651613 110.029525 11.1154372 118.372983 14.1424651 100.701254 1.31976893 88.1860657 19.0402992 85.6077951 26.9651613 69.5295245 34.8900234 85.6077951 52.6105536 88.1860657 39.7878575 100.701254 42.8148854 118.372983"></polygon>
                            <polygon id="Star" stroke="none" fill="#FFD480" fill-rule="evenodd" points="147.280191 60.75 123.505605 73.2651883 128.046147 46.7575941 108.812102 27.9848117 135.392898 24.1174059 147.280191 0 159.167484 24.1174059 185.74828 27.9848117 166.514235 46.7575941 171.054777 73.2651883"></polygon>
                            <path d="M103.332597,182.383627 L101.987251,190.237728 L107.686227,195.800034 L99.8104357,196.945932 L96.2882747,204.09183 L92.7661138,196.945932 L84.8903226,195.800034 L90.5892987,190.237728 L89.2439529,182.383627 L96.2882747,186.09183 L103.332597,182.383627 Z M158.787661,96.5295245 L156.769642,108.310677 L165.318106,116.654136 L153.504419,118.372983 L148.221178,129.09183 L142.937937,118.372983 L131.12425,116.654136 L139.672714,108.310677 L137.654695,96.5295245 L148.221178,102.09183 L158.787661,96.5295245 Z" id="Star-2" stroke="none" fill="#FFF887" fill-rule="evenodd"></path>
                            <polygon id="Star-Copy-2" stroke="none" fill="#FFF887" fill-rule="evenodd" transform="translate(81.531250, 68.954677) rotate(48.000000) translate(-81.531250, -68.954677) " points="81.5359214 74.3085845 76.2506948 77.0843614 77.2566445 71.1986307 72.976686 67.0271281 78.8871927 66.1721119 81.5272595 60.8182046 84.1742038 66.1755061 90.0858133 67.0381121 85.8112082 71.2041228 86.824717 77.0911499"></polygon>
                            <polygon id="Star-Copy-3" stroke="none" fill="#FFC526" fill-rule="evenodd" transform="translate(28.558030, 149.911673) rotate(44.000000) translate(-28.558030, -149.911673) " points="28.562725 155.266054 23.277983 158.042065 24.2838233 152.155807 20.0042367 147.983916 25.9142086 147.128841 28.5540207 141.77446 31.2007439 147.132252 37.111824 147.994954 32.837617 152.161326 33.8510534 158.048886"></polygon>
                            <mask id="mask-9" fill="white">
                                <use xlink:href="#path-8"></use>
                            </mask>
                            <use id="Star" stroke="none" fill="#FFE91F" fill-rule="evenodd" transform="translate(89.978200, 122.116034) rotate(-12.000000) translate(-89.978200, -122.116034) " xlink:href="#path-8"></use>
                        </g>
                    </g>
                </g>
            </g>
            <g id="face" mask="url(#mask-2)">
                <g transform="translate(238.106489, 295.000000)">
                    <g id="eyes" stroke-width="1" fill-rule="evenodd">
                        <g id="left-eye">
                            <ellipse id="eye-L" fill="#FFFDFD" cx="59.9225806" cy="60" rx="59.9225806" ry="60"></ellipse>
                            <ellipse id="Oval" stroke="#436CAA" stroke-width="6" fill="#5E87C7" cx="59.9225806" cy="60" rx="35.9496774" ry="36"></ellipse>
                            <ellipse id="Oval-Copy-36" fill="#14094F" cx="59.9225806" cy="60" rx="17.9767742" ry="18"></ellipse>
                            <g id="inner-light" transform="translate(33.956129, 37.000000)" fill="#FFFFFF" fill-opacity="0.92">
                                <path d="M12.9832258,6 C17.3958028,6 20.9729032,9.581722 20.9729032,14 C20.9729032,18.418278 17.3958028,22 12.9832258,22 C8.57064881,22 4.99354839,18.418278 4.99354839,14 C4.99354839,9.581722 8.57064881,6 12.9832258,6 Z M4.49419355,0 C6.97626811,0 8.9883871,2.01471863 8.9883871,4.5 C8.9883871,6.98528137 6.97626811,9 4.49419355,9 C2.01211899,9 0,6.98528137 0,4.5 C0,2.01471863 2.01211899,0 4.49419355,0 Z" id="Combined-Shape"></path>
                            </g>
                        </g>
                        <g id="right-eye" transform="translate(143.814194, 2.000000)">
                            <ellipse id="eye-R" fill="#FFFDFD" cx="59.9225806" cy="60" rx="59.9225806" ry="60"></ellipse>
                            <ellipse id="Oval-Copy-10" stroke="#436CAA" stroke-width="6" fill="#5E87C7" cx="59.9225806" cy="60" rx="35.9496774" ry="36"></ellipse>
                            <g id="Group-4" transform="translate(34.954839, 35.000000)">
                                <ellipse id="Oval" fill="#14094F" cx="24.9677419" cy="25" rx="17.9767742" ry="18"></ellipse>
                                <g id="inner-light" fill="#FFFFFF" fill-opacity="0.92">
                                    <path d="M12.9832258,6 C17.3958028,6 20.9729032,9.581722 20.9729032,14 C20.9729032,18.418278 17.3958028,22 12.9832258,22 C8.57064881,22 4.99354839,18.418278 4.99354839,14 C4.99354839,9.581722 8.57064881,6 12.9832258,6 Z M4.49419355,0 C6.97626811,0 8.9883871,2.01471863 8.9883871,4.5 C8.9883871,6.98528137 6.97626811,9 4.49419355,9 C2.01211899,9 0,6.98528137 0,4.5 C0,2.01471863 2.01211899,0 4.49419355,0 Z" id="Combined-Shape"></path>
                                </g>
                            </g>
                        </g>
                    </g>
                    <g id="nose" transform="translate(131.829677, 121.826172) scale(1, -1) translate(-131.829677, -121.826172) ">
                        <use fill="black" fill-opacity="1" filter="url(#filter-11)" xlink:href="#path-10"></use>
                        <use fill="#FFD438" fill-rule="evenodd" xlink:href="#path-10"></use>
                    </g>
                </g>
            </g>
        </g>
    </g>
</svg>