<?xml version="1.0" encoding="UTF-8"?>
<svg width="790px" height="790px" viewBox="0 0 790 790" version="1.1" xmlns="http://www.w3.org/2000/svg" xmlns:xlink="http://www.w3.org/1999/xlink">
    <!-- Generator: Sketch 64 (93537) - https://sketch.com -->
    <title>done</title>
    <desc>Created with Sketch.</desc>
    <defs>
        <circle id="path-1" cx="387" cy="387" r="387"></circle>
        <path d="M66.1538462,77.2378086 C102.689607,77.2378086 132.307692,102.689607 132.307692,66.1538462 C132.307692,29.6180858 102.689607,0 66.1538462,0 C29.6180858,0 0,29.6180858 0,66.1538462 C0,102.689607 29.6180858,77.2378086 66.1538462,77.2378086 Z" id="path-3"></path>
        <path d="M66.1538462,77.2378086 C102.689607,77.2378086 132.307692,102.689607 132.307692,66.1538462 C132.307692,29.6180858 102.689607,0 66.1538462,0 C29.6180858,0 0,29.6180858 0,66.1538462 C0,102.689607 29.6180858,77.2378086 66.1538462,77.2378086 Z" id="path-5"></path>
    </defs>
    <g id="Page-1" stroke="none" stroke-width="1" fill="none" fill-rule="evenodd">
        <g id="done" transform="translate(8.000000, 8.000000)">
            <mask id="mask-2" fill="white">
                <use xlink:href="#path-1"></use>
            </mask>
            <circle stroke="#04246C" stroke-width="8" cx="387" cy="387" r="391"></circle>
            <rect id="Rectangle-Copy-9" fill="#FFEDED" mask="url(#mask-2)" x="0" y="0" width="773.00129" height="774"></rect>
            <ellipse id="Oval" fill="#C4D8DB" mask="url(#mask-2)" cx="387" cy="695" rx="387" ry="90"></ellipse>
            <g id="owl" mask="url(#mask-2)">
                <g transform="translate(140.414120, 132.000000)">
                    <g id="body">
                        <g id="lapki" transform="translate(187.000000, 408.000000)" fill="#F7B500" stroke="#B58502">
                            <path d="M30.5858799,0 L30.5852204,106.558811 C43.0869497,110.323249 58.5126188,132.059386 52.7589713,139.581478 C46.4506186,147.82877 8.16551342,148.444705 1.38603146,139.581478 C-4.64010282,131.703148 10.1942617,111.297691 22.5854043,106.859994 L22.5858799,0 L30.5858799,0 Z" id="leg-L"></path>
                            <path d="M102.58588,0 L102.58522,106.558811 C115.08695,110.323249 130.512619,132.059386 124.758971,139.581478 C118.450619,147.82877 80.1655134,148.444705 73.3860315,139.581478 C67.3598972,131.703148 82.1942617,111.297691 94.5854043,106.859994 L94.5858799,0 L102.58588,0 Z" id="leg-R"></path>
                        </g>
                        <path d="M494.58588,0 C494.58588,64.4471523 460.283998,122.113721 406.09616,160.635617 C419.803623,186.032918 427.58588,215.107637 427.58588,246 C427.58588,345.411255 346.997135,426 247.58588,426 C148.174625,426 67.5858799,345.411255 67.5858799,246 C67.5858799,215.660411 75.0921237,187.073999 88.3488175,161.996558 C34.2858554,123.485627 0.58587988,65.2142983 0.58587988,0 C72.6840097,42 154.267013,63.875 245.334891,65.625 C336.453466,63.875 419.537129,42 494.58588,0 Z" id="body-+-ears" fill="#A97C60"></path>
                        <g id="wings-with-book" transform="translate(75.585880, 222.000000)">
                            <g id="book" transform="translate(273.555828, 123.308690) rotate(18.000000) translate(-273.555828, -123.308690) translate(173.055828, 26.308690)">
                                <g id="down" transform="translate(0.000000, 0.951554)">
                                    <path d="M142.389915,-10.7135717 C140.950151,-17.2830816 142.520425,-19.2103619 147.100737,-16.4954126 C149.518297,19.2514592 149.075319,54.5256606 150.163946,120.869747 C150.137015,124.113876 151.122752,127.004796 145.460029,128.241197 C145.15205,115.404171 144.128679,69.0859145 142.389915,-10.7135717 Z" id="Rectangle" stroke="#9B1515" fill="#B91919" transform="translate(146.043666, 55.277466) rotate(-45.000000) translate(-146.043666, -55.277466) "></path>
                                    <path d="M94.8285248,3.273598 L94.918457,3.30137525 L94.918457,3.30137525 C97.4628443,4.1280968 98.8552876,6.86092049 98.028566,9.40530779 C98.019737,9.43248057 98.0106678,9.4595747 98.0013396,9.48658015 L97.1970215,11.8206624 C97.0167725,12.343734 96.4466184,12.6216467 95.9235468,12.4413977 C95.5483009,12.312089 95.284784,11.9734321 95.2516519,11.5779167 L95.2263184,11.2754963 C95.0156031,8.76007573 92.8056334,6.89174286 90.2902128,7.10245808 C90.1369693,7.11529519 89.9844714,7.13585817 89.833301,7.16406856 L89.283,7.26599999 L186.862137,107.513289 L113.137085,189.328433 L7.2475359e-12,87.4093029 L86.6513672,4.56211744 L87.0613657,4.98516995 C87.1780826,4.62828942 87.4063302,4.30971993 87.724478,4.08305217 C88.0531507,3.84888454 88.3284223,3.69770056 88.550293,3.62950025 C91.6144606,2.68761269 93.9377053,3.01156753 94.8285248,3.273598 Z" id="Combined-Shape" stroke="#B91919" fill="#E02020"></path>
                                    <polygon id="Rectangle-Copy-13" fill="#E5786D" points="88.1962891 5.10703932 97.9355469 16.094344 110.050781 182.453719 4.81445312 88.1773518"></polygon>
                                </g>
                                <g id="pages" transform="translate(5.005051, 6.164062)" fill="#FFFCE5" stroke="#CEB8A9">
                                    <polygon id="page" points="85.1092072 0.0224609375 91.2713166 9.73730469 13.0115509 92.8466797 0.453933741 80.8544922"></polygon>
                                    <polygon id="page-copy" points="87.0144806 0.327148438 92.785965 10.7285156 11.6541291 91.4511719 2.69123843 81.1972656"></polygon>
                                    <polygon id="page-copy-2" points="88.3816681 0.798828125 92.3435822 10.2539063 14.5027619 91.3876953 4.36213687 81.9628906"></polygon>
                                    <polygon id="page-copy-3" points="89.4055939 1.82910156 92.5554962 9.15039063 14.7801056 89.8320312 5.99494937 82.1967949"></polygon>
                                    <polygon id="page-copy-4" points="90.0728302 3.23071289 93.5281525 17.2382812 16.2888947 93.0566406 6.97737124 84.3681641"></polygon>
                                    <polygon id="page-copy-5" points="90.4217072 5.4621582 93.8113556 12.9951172 14.817215 93.1191406 7.99494937 86.7490234"></polygon>
                                    <polygon id="page-copy-6" points="91.0938263 6.66772461 92.5652619 11.6464844 13.6551056 93.4794922 8.99494937 88.9931641"></polygon>
                                </g>
                                <path d="M93,5 C93.5522847,5 94,5.44771525 94,6 C94.5522847,6 95,6.44771525 95,7 C95.5522847,7 96,7.44771525 96,8 C96.5522847,8 97,8.44771525 97,9 C97,9.18260372 96.9510565,9.35377607 96.8655723,9.5011143 C96.9512743,9.64698644 97,9.81780297 97,10 C97,10.1826037 96.9510565,10.3537761 96.8655723,10.5011143 C96.9512743,10.6469864 97,10.817803 97,11 C97,11.1826037 96.9510565,11.3537761 96.8655723,11.5011143 C96.9512743,11.6469864 97,11.817803 97,12 C97,12.1826037 96.9510565,12.3537761 96.8655723,12.5011143 C96.9512743,12.6469864 97,12.817803 97,13 C97,13.5522847 96.5522847,14 96,14 C95.4477153,14 95,13.5522847 95,13 C95,12.817803 95.0487257,12.6469864 95.1338571,12.4998705 C95.0489435,12.3537761 95,12.1826037 95,12 C95,11.817803 95.0487257,11.6469864 95.1338571,11.4998705 C95.0489435,11.3537761 95,11.1826037 95,11 C95,10.817803 95.0487257,10.6469864 95.1338571,10.4998705 C95.0489435,10.3537761 95,10.1826037 95,10 C95,9.81780297 95.0487257,9.64698644 95.1338571,9.4998705 C95.0489435,9.35377607 95,9.18260372 95,9 L95,9 L94.8833789,8.99327227 C94.3860402,8.93550716 94,8.51283584 94,8 L94,8 L93.8833789,7.99327227 C93.3860402,7.93550716 93,7.51283584 93,7 L93,7 L92.8833789,6.99327227 C92.7449444,6.97719332 92.6151332,6.9328418 92.4998705,6.86614288 C92.3537761,6.9510565 92.1826037,7 92,7 C91.817803,7 91.6469864,6.95127427 91.4998705,6.86614288 C91.3537761,6.9510565 91.1826037,7 91,7 C90.817803,7 90.6469864,6.95127427 90.4998705,6.86614288 C90.3537761,6.9510565 90.1826037,7 90,7 C89.817803,7 89.6469864,6.95127427 89.4998705,6.86614288 C89.3537761,6.9510565 89.1826037,7 89,7 C88.817803,7 88.6469864,6.95127427 88.4998705,6.86614288 C88.3537761,6.9510565 88.1826037,7 88,7 C87.4477153,7 87,6.55228475 87,6 C87,5.44771525 87.4477153,5 88,5 C88.1826037,5 88.3537761,5.0489435 88.5011143,5.13442774 C88.6469864,5.04872573 88.817803,5 89,5 C89.1826037,5 89.3537761,5.0489435 89.5011143,5.13442774 C89.6469864,5.04872573 89.817803,5 90,5 C90.1826037,5 90.3537761,5.0489435 90.5011143,5.13442774 C90.6469864,5.04872573 90.817803,5 91,5 C91.1826037,5 91.3537761,5.0489435 91.5011143,5.13442774 C91.6469864,5.04872573 91.817803,5 92,5 C92.1826037,5 92.3537761,5.0489435 92.5011143,5.13442774 C92.6469864,5.04872573 92.817803,5 93,5 Z" id="stitch" fill="#901414"></path>
                                <polygon id="Rectangle" stroke="#B91919" fill="#E02020" points="96.9853516 13.203125 196.923828 108.654297 114.626953 193.132813 11.2460937 100.179687"></polygon>
                                <text id="DONE!" fill="#FFFFFF" transform="translate(83.914486, 83.186384) rotate(-44.000000) translate(-83.914486, -83.186384) " font-family="MarkerFelt-Wide, Marker Felt" font-size="36" font-weight="bold" letter-spacing="1.5">
                                    <tspan x="33.4144857" y="95.1863835">DONE!</tspan>
                                </text>
                            </g>
                            <path d="M341,27 C357.313006,27 370.775014,39.206574 372.750444,54.9841426 C375.10535,64.5985307 377.235274,80.9919151 381,106.741819 C388.515714,158.147667 411.908261,164.212835 402.617683,166.876866 C395.506085,168.916084 379.554819,159.072526 367.103955,135.651351 C372.093386,152.601405 375.176466,161.620285 369.253997,162.664576 C361.931074,163.955805 348.303246,151.739167 338.978184,126.591547 C340.71291,141.855593 341.592673,150 336,150 C326.335017,150 312.05957,112.696289 309,80.6113281 C307.550891,65.4148833 307.997939,56.926886 309.774421,51.9709143 C312.977128,37.6796278 325.741384,27 341,27 Z" id="wing-R" fill="#714040"></path>
                            <path d="M134.186079,65.7749818 C134.931354,74.2935097 132.997991,82.2600208 129.245608,88.3507576 C123.876566,101.163353 110.378166,111.539794 94.710006,121.104153 C83.8093856,127.758249 73.5059949,129.394652 68.7221918,133.554936 C54.2012428,146.183228 42.374925,150.023724 28.6936435,139.180581 C27.2712498,138.053259 26.9259248,137.079798 27.3806646,136.187976 C23.9256614,135.004167 20.4585299,132.445149 15.908148,128.824116 C15.8396721,127.83118 15.876016,126.876006 16.007966,125.955498 C11.7063752,122.781949 8.44779084,118.143877 9.60109022,114.744408 C9.81386244,114.11724 10.0546799,113.624035 10.3394171,113.224998 C11.2659124,110.271939 13.69526,106.847631 18.4487465,103.777611 C19.42618,103.146339 20.3025189,102.856656 21.0799444,102.786042 C8.45013336,92.986037 3.85333257,78.1692959 10.6449705,73.2837891 C14.8808404,70.2367522 19.5347188,82.9182359 26.795461,85.373314 C34.0562032,87.8283921 36.783735,88.1828843 40.1908764,88.1828843 C43.907742,88.1828843 46.7206799,88.4393251 48.8260358,88.8887356 C73.6944346,51.1781692 91.4877395,37.2017055 105.200755,36.0553665 C105.514623,36.0291287 105.805638,36.0493857 106.073869,36.1140522 C106.212156,36.1016432 106.351992,36.0879142 106.492228,36.0756451 C120.246807,34.8722754 132.645766,48.1691214 134.186079,65.7749818 Z" id="wing-L" fill="#714040" transform="translate(70.927930, 90.760817) scale(-1, 1) rotate(8.000000) translate(-70.927930, -90.760817) "></path>
                        </g>
                    </g>
                    <g id="face" transform="translate(91.585880, 156.000000)">
                        <g id="eyes-copy">
                            <polygon id="nose" fill="#FFD438" transform="translate(157.957060, 105.240234) rotate(45.000000) translate(-157.957060, -105.240234) " points="146.56457 93.6655652 173.373901 85.24101 177.895558 125.239459 138.018562 120.596349"></polygon>
                            <g id="eye-R" transform="translate(243.153846, 47.509913) rotate(4.000000) translate(-243.153846, -47.509913) translate(177.000000, 4.509913)">
                                <mask id="mask-4" fill="white">
                                    <use xlink:href="#path-3"></use>
                                </mask>
                                <use fill="#FFFFFF" xlink:href="#path-3"></use>
                                <circle id="Oval-Copy-10" stroke="#436CAA" stroke-width="8" fill="#5E87C7" mask="url(#mask-4)" cx="66.1538462" cy="66.1538462" r="39"></circle>
                                <circle id="Oval" fill="#14094F" mask="url(#mask-4)" cx="66.1538462" cy="66.1538462" r="19.8461538"></circle>
                                <path d="M50.7179487,49.6153846 C53.7625954,49.6153846 56.2307692,52.0835584 56.2307692,55.1282051 C56.2307692,58.1728518 53.7625954,60.6410256 50.7179487,60.6410256 C47.673302,60.6410256 45.2051282,58.1728518 45.2051282,55.1282051 C45.2051282,52.0835584 47.673302,49.6153846 50.7179487,49.6153846 Z M38.0384615,39.6923077 C42.6054316,39.6923077 46.3076923,43.3945684 46.3076923,47.9615385 C46.3076923,52.5285085 42.6054316,56.2307692 38.0384615,56.2307692 C33.4714915,56.2307692 29.7692308,52.5285085 29.7692308,47.9615385 C29.7692308,43.3945684 33.4714915,39.6923077 38.0384615,39.6923077 Z" id="Combined-Shape" fill-opacity="0.92" fill="#FFFFFF" mask="url(#mask-4)"></path>
                            </g>
                            <g id="eye-L" transform="translate(69.153846, 47.509913) rotate(-4.000000) translate(-69.153846, -47.509913) translate(3.000000, 4.509913)">
                                <mask id="mask-6" fill="white">
                                    <use xlink:href="#path-5"></use>
                                </mask>
                                <use id="eye-R" fill="#FFFFFF" xlink:href="#path-5"></use>
                                <circle id="Oval-Copy-10" stroke="#436CAA" stroke-width="8" fill="#5E87C7" mask="url(#mask-6)" cx="66.1538462" cy="66.1538462" r="39"></circle>
                                <circle id="Oval" fill="#14094F" mask="url(#mask-6)" cx="66.1538462" cy="66.1538462" r="19.8461538"></circle>
                                <path d="M50.7179487,49.6153846 C53.7625954,49.6153846 56.2307692,52.0835584 56.2307692,55.1282051 C56.2307692,58.1728518 53.7625954,60.6410256 50.7179487,60.6410256 C47.673302,60.6410256 45.2051282,58.1728518 45.2051282,55.1282051 C45.2051282,52.0835584 47.673302,49.6153846 50.7179487,49.6153846 Z M38.0384615,39.6923077 C42.6054316,39.6923077 46.3076923,43.3945684 46.3076923,47.9615385 C46.3076923,52.5285085 42.6054316,56.2307692 38.0384615,56.2307692 C33.4714915,56.2307692 29.7692308,52.5285085 29.7692308,47.9615385 C29.7692308,43.3945684 33.4714915,39.6923077 38.0384615,39.6923077 Z" id="Combined-Shape" fill-opacity="0.92" fill="#FFFFFF" mask="url(#mask-6)"></path>
                            </g>
                        </g>
                    </g>
                </g>
            </g>
        </g>
    </g>
</svg>