<?xml version="1.0" encoding="UTF-8"?>
<svg width="790px" height="790px" viewBox="0 0 790 790" version="1.1" xmlns="http://www.w3.org/2000/svg" xmlns:xlink="http://www.w3.org/1999/xlink">
    <!-- Generator: Sketch 64 (93537) - https://sketch.com -->
    <title>sending</title>
    <desc>Created with Sketch.</desc>
    <defs>
        <circle id="path-1" cx="387" cy="387" r="387"></circle>
        <circle id="path-3" cx="387" cy="387" r="387"></circle>
        <path d="M152.456954,0.2662252 L152.456954,446.443709 L152.438537,446.443601 C152.450793,446.584105 152.456954,446.724985 152.456954,446.866225 C152.456954,457.36695 118.406875,465.87947 76.403974,465.87947 C34.4010724,465.87947 0.3509934,457.36695 0.3509934,446.866225 C0.3509934,446.724985 0.3571536,446.584105 0.3694104,446.443601 L0.3509934,446.443709 L0.3509934,0.2662252 L152.456954,0.2662252 Z" id="path-5"></path>
    </defs>
    <g id="Page-1" stroke="none" stroke-width="1" fill="none" fill-rule="evenodd">
        <g id="sending" transform="translate(4.000000, 4.000000)">
            <circle id="Oval" stroke="#04246C" stroke-width="8" cx="391" cy="391" r="391"></circle>
            <g id="Oval-Clipped" transform="translate(4.000000, 4.000000)">
                <mask id="mask-2" fill="white">
                    <use xlink:href="#path-1"></use>
                </mask>
                <g id="path-1"></g>
                <rect id="Rectangle" fill="#FFEDED" mask="url(#mask-2)" x="-4" y="-4" width="782" height="782"></rect>
                <ellipse id="Oval" fill="#C4D8DB" fill-rule="nonzero" mask="url(#mask-2)" cx="387" cy="670" rx="427" ry="106"></ellipse>
            </g>
            <g id="sending-owl-Clipped" transform="translate(4.000000, 4.000000)">
                <mask id="mask-4" fill="white">
                    <use xlink:href="#path-3"></use>
                </mask>
                <g id="path-1"></g>
                <g id="sending-owl" mask="url(#mask-4)">
                    <g transform="translate(39.000000, 146.000000)" id="Group">
                        <g>
                            <g id="owl" transform="translate(0.000000, 21.000000)" fill-rule="nonzero">
                                <g id="lapki" transform="translate(203.000000, 381.000000)" fill="#F7B500" stroke="#B58502">
                                    <path d="M69.2741722,0.486092715 L69.2743746,85.4443203 C79.8107398,88.7565926 92.6955701,106.976535 87.85725,113.301964 C82.526483,120.271199 50.1743014,120.791685 44.4454147,113.301964 C39.3669346,106.66256 51.8208339,89.4946273 62.2743954,85.682017 L62.2741722,0.486092715 L69.2741722,0.486092715 Z" id="leg-R"></path>
                                    <path d="M27.0537496,5.48609272 L27.0535801,89.9016161 C37.9059348,93.3128859 51.1774666,112.079491 46.1940176,118.594655 C40.7034143,125.772854 7.38119312,126.308946 1.4805329,118.594655 C-3.75020032,111.756201 9.07700295,94.0736119 19.8439776,90.1466009 L19.8438633,5.48609272 L27.0537496,5.48609272 Z" id="leg-L"></path>
                                </g>
                                <g id="wing-R" transform="translate(408.505587, 195.646075) rotate(-120.000000) translate(-408.505587, -195.646075) translate(367.005587, 136.146075)" fill="#714040">
                                    <path d="M28.0314223,0.397382198 C41.8770441,0.397382198 53.3024254,10.6795637 54.9753345,23.9683726 C56.973883,32.0652516 58.7811687,45.8669788 61.9748231,67.5420289 C68.3525455,110.827066 88.2031108,115.934092 80.319271,118.177293 C74.2846529,119.8943 60.7492802,111.60632 50.1838022,91.8863751 C54.4170499,106.157687 57.0328232,113.751142 52.0073416,114.630423 C45.793401,115.717635 34.2295278,105.43155 26.3164379,84.2578759 C27.7878739,97.1093808 28.5341279,103.966522 23.7884972,103.966522 C15.5869373,103.966522 3.47300721,72.5558451 0.876701673,45.539489 C-0.353051549,32.7430555 0.0264056003,25.5958703 1.53408953,21.4229042 C4.25201238,9.38958633 15.0834159,0.397382198 28.0314223,0.397382198 Z" id="Path"></path>
                                </g>
                                <g id="body" fill="#A97C60">
                                    <path d="M218.913956,84.8389913 C289.1189,84.8389913 354.562919,64.4550499 409.650416,29.2827653 C411.198284,39.2943914 412.000048,49.5591531 412.000048,60.0111768 C412.000048,170.468126 322.456998,260.011176 212.000048,260.011176 C101.543098,260.011176 12.0000481,170.468126 12.0000481,60.0111768 C12.0000481,46.6619079 13.3079066,33.6181058 15.8024795,21.0009143 C73.3439116,61.2385863 143.372849,84.8389913 218.913956,84.8389913 Z" id="ears" transform="translate(212.000048, 140.506045) rotate(-6.000000) translate(-212.000048, -140.506045) "></path>
                                    <circle id="Oval" cx="233" cy="238" r="152"></circle>
                                </g>
                                <path d="M169.144646,228.639639 C184.001336,228.639639 196.261402,239.79015 198.059329,254.202273 C200.203817,262.983271 202.143463,277.956344 205.57171,301.47451 C212.416095,348.42777 233.719141,353.967595 225.258429,356.400879 C218.782148,358.263441 204.255998,349.272756 192.917333,327.880847 C197.46078,343.362242 200.268244,351.599622 194.8749,352.553441 C188.206027,353.732838 175.795325,342.574157 167.303195,319.604329 C168.883173,333.546603 169.684466,340.985824 164.591263,340.985824 C155.789589,340.985824 142.789274,306.913226 140.002995,277.607348 C138.683525,263.729262 139.090318,255.97671 140.707508,251.449715 C143.623368,238.395498 155.248082,228.639639 169.144646,228.639639 Z" id="wing-L" fill="#714040" transform="translate(183.215004, 292.639639) rotate(-36.000000) translate(-183.215004, -292.639639) "></path>
                                <g id="face" transform="translate(177.000000, 149.000000)">
                                    <g id="eyes" transform="translate(0.004250, 0.098013)">
                                        <g id="left-eye" transform="translate(0.000000, 8.000000)">
                                            <circle id="eye-L" fill="#FFFDFD" cx="50" cy="50" r="50"></circle>
                                            <g id="inner" transform="translate(29.000000, 15.000000)">
                                                <circle id="Oval" stroke="#436CAA" stroke-width="6" fill="#5E87C7" cx="30" cy="30" r="29.5"></circle>
                                                <circle id="Oval-Copy-36" fill="#14094F" cx="36" cy="26" r="15"></circle>
                                                <path d="M43.0454538,13.6363636 C46.4595778,13.6363636 49.227272,16.4040579 49.227272,19.8181818 C49.227272,23.2323057 46.4595778,26 43.0454538,26 C39.6313299,26 36.8636357,23.2323057 36.8636357,19.8181818 C36.8636357,16.4040579 39.6313299,13.6363636 43.0454538,13.6363636 Z M36.477272,9 C38.3977167,9 39.9545448,10.556828 39.9545448,12.4772727 C39.9545448,14.3977174 38.3977167,15.9545455 36.477272,15.9545455 C34.5568273,15.9545455 32.9999993,14.3977174 32.9999993,12.4772727 C32.9999993,10.556828 34.5568273,9 36.477272,9 Z" id="Combined-Shape" fill-opacity="0.92" fill="#FFFFFF" transform="translate(41.113636, 17.500000) scale(-1, 1) translate(-41.113636, -17.500000) "></path>
                                            </g>
                                        </g>
                                        <g id="right-eye" transform="translate(102.000000, 0.000000)">
                                            <circle id="eye-R" fill="#FFFDFD" cx="45.5" cy="45.5" r="45.5"></circle>
                                            <g id="inner" transform="translate(27.000000, 14.000000)">
                                                <circle id="Oval-Copy-10" stroke="#436CAA" stroke-width="6" fill="#5E87C7" cx="26.575" cy="26.575" r="26.575"></circle>
                                                <circle id="Oval" fill="#14094F" cx="30.5" cy="22.5" r="13.5"></circle>
                                                <g id="inner-light" transform="translate(36.000000, 14.500000) scale(-1, 1) translate(-36.000000, -14.500000) translate(29.000000, 7.000000)" fill="#FFFFFF" fill-opacity="0.92">
                                                    <path d="M8.66666667,4 C11.6121853,4 14,6.38781467 14,9.33333333 C14,12.278852 11.6121853,14.6666667 8.66666667,14.6666667 C5.721148,14.6666667 3.33333333,12.278852 3.33333333,9.33333333 C3.33333333,6.38781467 5.721148,4 8.66666667,4 Z M3,0 C4.65685425,0 6,1.34314575 6,3 C6,4.65685425 4.65685425,6 3,6 C1.34314575,6 0,4.65685425 0,3 C0,1.34314575 1.34314575,0 3,0 Z" id="Combined-Shape"></path>
                                                </g>
                                            </g>
                                        </g>
                                    </g>
                                    <path d="M100.790357,90 L136,98.2106761 L111.184693,121.962116 C104.432017,122.464921 99.7993058,117.962774 97.2865609,108.455676 C94.773816,98.948577 95.9417482,92.7966851 100.790357,90 Z" id="nose" fill="#FFD438"></path>
                                </g>
                            </g>
                            <g id="postbox" transform="translate(439.000000, 0.000000)">
                                <ellipse id="bottom" fill="#090505" fill-rule="nonzero" cx="101.403974" cy="482.513907" rx="101.403974" ry="33.8013245"></ellipse>
                                <g id="middle" transform="translate(25.000000, 31.000000)" fill="#A21212" fill-rule="nonzero">
                                    <path d="M152.456954,0.2662252 L152.456954,446.443709 L152.438537,446.443601 C152.450793,446.584105 152.456954,446.724985 152.456954,446.866225 C152.456954,457.36695 118.406875,465.87947 76.403974,465.87947 C34.4010724,465.87947 0.3509934,457.36695 0.3509934,446.866225 C0.3509934,446.724985 0.3571536,446.584105 0.3694104,446.443601 L0.3509934,446.443709 L0.3509934,0.2662252 L152.456954,0.2662252 Z" id="path-4"></path>
                                </g>
                                <g id="hole-Clipped" transform="translate(25.000000, 31.000000)">
                                    <mask id="mask-6" fill="white">
                                        <use xlink:href="#path-5"></use>
                                    </mask>
                                    <g id="path-4"></g>
                                    <g id="hole" mask="url(#mask-6)">
                                        <g transform="translate(-7.000000, 43.000000)" id="Group">
                                            <g transform="translate(0.920274, 0.852892)">
                                                <ellipse id="Oval-Copy-3" fill="#420404" transform="translate(82.483699, 59.725729) rotate(178.000000) translate(-82.483699, -59.725729) " cx="82.4836988" cy="59.7257285" rx="76.0529801" ry="19.013245"></ellipse>
                                                <g id="Rectangle" transform="translate(6.000000, 25.000000)" fill="#420404">
                                                    <rect id="path-6" x="0.43071906" y="0.7060485" width="152.10596" height="33.8013245"></rect>
                                                </g>
                                                <rect id="Rectangle" fill="#A21212" x="115.439991" y="25.7060485" width="43.0966887" height="50.7019868"></rect>
                                                <ellipse id="Oval-Copy-4" fill="#A21212" transform="translate(77.052980, 18.210596) rotate(178.000000) translate(-77.052980, -18.210596) " cx="77.0529799" cy="18.210596" rx="76.0529801" ry="15.210596"></ellipse>
                                            </g>
                                        </g>
                                    </g>
                                </g>
                                <ellipse id="top" fill="#090505" fill-rule="nonzero" cx="101.403974" cy="33.8013245" rx="101.403974" ry="33.8013245"></ellipse>
                            </g>
                            <g id="parcel" transform="translate(398.000000, 104.000000)" fill-rule="nonzero" stroke="#C5B49F">
                                <polygon id="top" fill="#F9E3C9" transform="translate(70.982634, 29.879843) rotate(160.000000) translate(-70.982634, -29.879843) " points="-0.929519948 25.050614 122.983226 24.9811576 142.894787 34.7785288 22.9242563 34.0741975"></polygon>
                                <polygon id="front" fill="#F9E3C9" transform="translate(89.418543, 47.716556) rotate(160.000000) translate(-89.418543, -47.716556) " points="152.296026 30.4708602 26.5410599 30.4708602 26.5410599 64.962251 152.296026 64.962251"></polygon>
                                <polygon id="left-side" fill="#E5C9A8" points="0.45812242 50.6437058 11.0727253 79.8070874 35.1476408 85.3737451 23.430193 53.1803217"></polygon>
                            </g>
                        </g>
                    </g>
                </g>
            </g>
        </g>
    </g>
</svg>