<?xml version="1.0" encoding="UTF-8"?>
<svg width="6320px" height="790px" viewBox="0 0 6320 790" version="1.1" xmlns="http://www.w3.org/2000/svg" xmlns:xlink="http://www.w3.org/1999/xlink">
    <!-- Generator: Sketch 64 (93537) - https://sketch.com -->
    <title>Group 2</title>
    <desc>Created with Sketch.</desc>
    <defs>
        <circle id="path-1" cx="387" cy="387" r="387"></circle>
        <circle id="path-3" cx="387" cy="387" r="387"></circle>
        <circle id="path-5" cx="387" cy="387" r="387"></circle>
        <circle id="path-7" cx="387" cy="387" r="387"></circle>
        <circle id="path-9" cx="387" cy="387" r="387"></circle>
        <circle id="path-11" cx="387" cy="387" r="387"></circle>
        <circle id="path-13" cx="387" cy="387" r="387"></circle>
        <circle id="path-15" cx="387" cy="387" r="387"></circle>
        <circle id="path-17" cx="387" cy="387" r="387"></circle>
        <circle id="path-19" cx="387" cy="387" r="387"></circle>
        <circle id="path-21" cx="387" cy="387" r="387"></circle>
        <circle id="path-23" cx="387" cy="387" r="387"></circle>
        <circle id="path-25" cx="387" cy="387" r="387"></circle>
        <circle id="path-27" cx="387" cy="387" r="387"></circle>
        <circle id="path-29" cx="387" cy="387" r="387"></circle>
        <circle id="path-31" cx="387" cy="387" r="387"></circle>
        <circle id="path-33" cx="387" cy="387" r="387"></circle>
        <circle id="path-35" cx="387" cy="387" r="387"></circle>
        <circle id="path-37" cx="387" cy="387" r="387"></circle>
        <circle id="path-39" cx="387" cy="387" r="387"></circle>
        <circle id="path-41" cx="387" cy="387" r="387"></circle>
        <circle id="path-43" cx="387" cy="387" r="387"></circle>
        <circle id="path-45" cx="387" cy="387" r="387"></circle>
        <circle id="path-47" cx="387" cy="387" r="387"></circle>
        <circle id="path-49" cx="387" cy="387" r="387"></circle>
        <circle id="path-51" cx="387" cy="387" r="387"></circle>
        <circle id="path-53" cx="387" cy="387" r="387"></circle>
        <circle id="path-55" cx="387" cy="387" r="387"></circle>
        <circle id="path-57" cx="387" cy="387" r="387"></circle>
        <circle id="path-59" cx="387" cy="387" r="387"></circle>
        <circle id="path-61" cx="387" cy="387" r="387"></circle>
        <circle id="path-63" cx="387" cy="387" r="387"></circle>
        <circle id="path-65" cx="387" cy="387" r="387"></circle>
        <circle id="path-67" cx="387" cy="387" r="387"></circle>
        <circle id="path-69" cx="387" cy="387" r="387"></circle>
        <circle id="path-71" cx="387" cy="387" r="387"></circle>
        <circle id="path-73" cx="387" cy="387" r="387"></circle>
        <circle id="path-75" cx="387" cy="387" r="387"></circle>
        <circle id="path-77" cx="387" cy="387" r="387"></circle>
        <circle id="path-79" cx="387" cy="387" r="387"></circle>
        <circle id="path-81" cx="387" cy="387" r="387"></circle>
        <circle id="path-83" cx="387" cy="387" r="387"></circle>
        <circle id="path-85" cx="387" cy="387" r="387"></circle>
        <circle id="path-87" cx="387" cy="387" r="387"></circle>
        <circle id="path-89" cx="387" cy="387" r="387"></circle>
        <circle id="path-91" cx="387" cy="387" r="387"></circle>
        <circle id="path-93" cx="387" cy="387" r="387"></circle>
        <circle id="path-95" cx="387" cy="387" r="387"></circle>
    </defs>
    <g id="Page-1" stroke="none" stroke-width="1" fill="none" fill-rule="evenodd">
        <g id="Group-2" transform="translate(4.000000, 4.000000)">
            <g id="1">
                <circle id="Oval" stroke="#04246C" stroke-width="8" cx="391" cy="391" r="391"></circle>
                <g id="Rectangle-Clipped" transform="translate(4.000000, 4.000000)">
                    <mask id="mask-2" fill="white">
                        <use xlink:href="#path-1"></use>
                    </mask>
                    <g id="path-1"></g>
                    <rect id="Rectangle" fill="#FFEDED" fill-rule="nonzero" mask="url(#mask-2)" x="0" y="0" width="774" height="774"></rect>
                </g>
                <g id="Oval-Clipped" transform="translate(4.000000, 4.000000)">
                    <mask id="mask-4" fill="white">
                        <use xlink:href="#path-3"></use>
                    </mask>
                    <g id="path-1"></g>
                    <ellipse id="Oval" fill="#C4D8DB" fill-rule="nonzero" mask="url(#mask-4)" cx="387" cy="685" rx="387" ry="111"></ellipse>
                </g>
                <g id="lapki-Clipped" transform="translate(4.000000, 4.000000)">
                    <mask id="mask-6" fill="white">
                        <use xlink:href="#path-5"></use>
                    </mask>
                    <g id="path-1"></g>
                    <g id="lapki" mask="url(#mask-6)">
                        <g transform="translate(324.000000, 547.000000)" id="Group">
                            <g>
                                <path d="M30.5858799,0 L30.5852204,106.558811 C43.0869497,110.323249 58.5126188,132.059386 52.7589713,139.581478 C46.4506186,147.82877 8.16551342,148.444705 1.38603146,139.581478 C-4.64010282,131.703148 10.1942617,111.297691 22.5854043,106.859994 L22.5858799,0 L30.5858799,0 Z" id="leg-L" stroke="#B58502" fill="#F7B500" fill-rule="nonzero"></path>
                                <path d="M104.58588,0 L104.58522,106.558811 C117.08695,110.323249 132.512619,132.059386 126.758971,139.581478 C120.450619,147.82877 82.1655134,148.444705 75.3860315,139.581478 C69.3598972,131.703148 84.1942617,111.297691 96.5854043,106.859994 L96.5858799,0 L104.58588,0 Z" id="leg-R" stroke="#B58502" fill="#F7B500" fill-rule="nonzero"></path>
                            </g>
                        </g>
                    </g>
                </g>
                <g id="body-Clipped" transform="translate(4.000000, 4.000000)">
                    <mask id="mask-8" fill="white">
                        <use xlink:href="#path-7"></use>
                    </mask>
                    <g id="path-1"></g>
                    <path d="M627.364278,122.059386 C627.397453,123.702259 627.41412,125.349183 627.41412,127 C627.41412,197.007394 597.439591,260.013862 549.624386,303.885551 C561.024561,327.508379 567.41412,354.008009 567.41412,382 C567.41412,481.411255 486.825375,562 387.41412,562 C288.002865,562 207.41412,481.411255 207.41412,382 C207.41412,354.008009 213.803679,327.508379 225.203855,303.880051 C177.388649,260.013862 147.41412,197.007394 147.41412,127 C147.41412,125.349183 147.430787,123.702259 147.463963,122.059386 C214.308656,172.259342 297.388237,202 387.41412,202 C475.77968,202 557.452792,173.346224 623.648925,124.823203 L627.364278,122.059386 Z" id="body" fill="#A97C60" fill-rule="nonzero" mask="url(#mask-8)"></path>
                </g>
                <g id="wings-Clipped" transform="translate(4.000000, 4.000000)">
                    <mask id="mask-10" fill="white">
                        <use xlink:href="#path-9"></use>
                    </mask>
                    <g id="path-1"></g>
                    <g id="wings" mask="url(#mask-10)">
                        <g transform="translate(148.000000, 367.000000)" id="Group">
                            <g>
                                <path d="M414.41412,1.70530257e-13 C430.727126,1.70530257e-13 444.189134,12.206574 446.164564,27.9841426 C448.51947,37.5985307 450.649395,53.9919151 454.41412,79.7418185 C461.929834,131.147667 485.322382,137.212835 476.031803,139.876866 C468.920205,141.916084 452.96894,132.072526 440.518075,108.651351 C445.507506,125.601405 448.590586,134.620285 442.668117,135.664576 C435.345194,136.955805 421.717366,124.739167 412.392304,99.5915466 C414.12703,114.855593 415.006793,123 409.41412,123 C399.749137,123 385.47369,85.6962891 382.41412,53.6113281 C380.965012,38.4148833 381.412059,29.926886 383.188541,24.9709143 C386.391248,10.6796278 399.155504,1.70530257e-13 414.41412,1.70530257e-13 Z" id="wing-R" fill="#714040" fill-rule="nonzero"></path>
                                <path d="M32.8652796,1.70530257e-13 C49.1782854,1.70530257e-13 62.6402931,12.206574 64.6157231,27.9841426 C66.9706296,37.5985307 69.100554,53.9919151 72.8652796,79.7418185 C80.3809936,131.147667 103.773541,137.212835 94.4829629,139.876866 C87.3713648,141.916084 71.420099,132.072526 58.9692346,108.651351 C63.9586652,125.601405 67.0417455,134.620285 61.1192765,135.664576 C53.7963533,136.955805 40.1685252,124.739167 30.8434633,99.5915466 C32.5781899,114.855593 33.4579521,123 27.8652796,123 C18.2002964,123 3.92484988,85.6962891 0.865279572,53.6113281 C-0.583828985,38.4148833 -0.136781442,29.926886 1.6397005,24.9709143 C4.84240747,10.6796278 17.6066631,1.70530257e-13 32.8652796,1.70530257e-13 Z" id="wing-L" fill="#714040" fill-rule="nonzero" transform="translate(48.315724, 70.069135) scale(-1, 1) translate(-48.315724, -70.069135) "></path>
                            </g>
                        </g>
                    </g>
                </g>
                <g id="face-Clipped" transform="translate(4.000000, 4.000000)">
                    <mask id="mask-12" fill="white">
                        <use xlink:href="#path-11"></use>
                    </mask>
                    <g id="path-1"></g>
                    <g id="face" mask="url(#mask-12)">
                        <g transform="translate(255.000000, 311.000000)" id="Group">
                            <g>
                                <g id="eyes" fill-rule="nonzero">
                                    <g id="left-eye">
                                        <ellipse id="eye-L" fill="#FFFDFD" cx="59.9225806" cy="60" rx="59.9225806" ry="60"></ellipse>
                                        <ellipse id="Oval" stroke="#436CAA" stroke-width="6" fill="#5E87C7" cx="59.9225806" cy="60" rx="35.9496774" ry="36"></ellipse>
                                        <ellipse id="Oval-Copy-36" fill="#14094F" cx="59.9225806" cy="60" rx="17.9767742" ry="18"></ellipse>
                                        <g id="inner-light" transform="translate(33.956129, 37.000000)" fill="#FFFFFF" fill-opacity="0.92">
                                            <path d="M12.9832258,6 C17.3958028,6 20.9729032,9.581722 20.9729032,14 C20.9729032,18.418278 17.3958028,22 12.9832258,22 C8.57064881,22 4.99354839,18.418278 4.99354839,14 C4.99354839,9.581722 8.57064881,6 12.9832258,6 Z M4.49419355,0 C6.97626811,0 8.9883871,2.01471863 8.9883871,4.5 C8.9883871,6.98528137 6.97626811,9 4.49419355,9 C2.01211899,9 0,6.98528137 0,4.5 C0,2.01471863 2.01211899,0 4.49419355,0 Z" id="Combined-Shape"></path>
                                        </g>
                                    </g>
                                    <g id="right-eye" transform="translate(143.814194, 2.000000)">
                                        <ellipse id="eye-R" fill="#FFFDFD" cx="59.9225806" cy="60" rx="59.9225806" ry="60"></ellipse>
                                        <ellipse id="Oval-Copy-10" stroke="#436CAA" stroke-width="6" fill="#5E87C7" cx="59.9225806" cy="60" rx="35.9496774" ry="36"></ellipse>
                                        <ellipse id="Oval" fill="#14094F" cx="59.9225806" cy="60" rx="17.9767742" ry="18"></ellipse>
                                        <g id="inner-light" transform="translate(34.954839, 35.000000)" fill="#FFFFFF" fill-opacity="0.92">
                                            <path d="M12.9832258,6 C17.3958028,6 20.9729032,9.581722 20.9729032,14 C20.9729032,18.418278 17.3958028,22 12.9832258,22 C8.57064881,22 4.99354839,18.418278 4.99354839,14 C4.99354839,9.581722 8.57064881,6 12.9832258,6 Z M4.49419355,0 C6.97626811,0 8.9883871,2.01471863 8.9883871,4.5 C8.9883871,6.98528137 6.97626811,9 4.49419355,9 C2.01211899,9 0,6.98528137 0,4.5 C0,2.01471863 2.01211899,0 4.49419355,0 Z" id="TL"></path>
                                        </g>
                                    </g>
                                </g>
                                <g id="nose" transform="translate(131.500000, 121.652344) scale(-1, 1) rotate(-180.000000) translate(-131.500000, -121.652344) translate(106.000000, 92.652344)">
                                    <g id="path-3-link" fill="#000000" fill-rule="nonzero">
                                        <polygon id="path-3" points="25.829677 0 50.797419 35.910156 25.829677 57.652344 0.861935 35.910156"></polygon>
                                    </g>
                                    <g id="path-3-link" fill="#FFD438">
                                        <polygon id="path-3" points="25.829677 0 50.797419 35.910156 25.829677 57.652344 0.861935 35.910156"></polygon>
                                    </g>
                                </g>
                            </g>
                        </g>
                    </g>
                </g>
            </g>
            <g id="2" transform="translate(790.000000, 0.000000)">
                <circle id="Oval" stroke="#04246C" stroke-width="8" cx="391" cy="391" r="391"></circle>
                <g id="Rectangle-Clipped" transform="translate(4.000000, 4.000000)">
                    <mask id="mask-14" fill="white">
                        <use xlink:href="#path-13"></use>
                    </mask>
                    <g id="path-1"></g>
                    <rect id="Rectangle" fill="#FFEDED" fill-rule="nonzero" mask="url(#mask-14)" x="0" y="0" width="774" height="774"></rect>
                </g>
                <g id="Oval-Clipped" transform="translate(4.000000, 4.000000)">
                    <mask id="mask-16" fill="white">
                        <use xlink:href="#path-15"></use>
                    </mask>
                    <g id="path-1"></g>
                    <ellipse id="Oval" fill="#C4D8DB" fill-rule="nonzero" mask="url(#mask-16)" cx="387" cy="685" rx="387" ry="111"></ellipse>
                </g>
                <g id="lapki-Clipped" transform="translate(4.000000, 4.000000)">
                    <mask id="mask-18" fill="white">
                        <use xlink:href="#path-17"></use>
                    </mask>
                    <g id="path-1"></g>
                    <g id="lapki" mask="url(#mask-18)">
                        <g transform="translate(324.000000, 547.000000)" id="Group">
                            <g>
                                <path d="M30.5858799,0 L30.5852204,106.558811 C43.0869497,110.323249 58.5126188,132.059386 52.7589713,139.581478 C46.4506186,147.82877 8.16551342,148.444705 1.38603146,139.581478 C-4.64010282,131.703148 10.1942617,111.297691 22.5854043,106.859994 L22.5858799,0 L30.5858799,0 Z" id="leg-L" stroke="#B58502" fill="#F7B500" fill-rule="nonzero"></path>
                                <path d="M104.58588,0 L104.58522,106.558811 C117.08695,110.323249 132.512619,132.059386 126.758971,139.581478 C120.450619,147.82877 82.1655134,148.444705 75.3860315,139.581478 C69.3598972,131.703148 84.1942617,111.297691 96.5854043,106.859994 L96.5858799,0 L104.58588,0 Z" id="leg-R" stroke="#B58502" fill="#F7B500" fill-rule="nonzero"></path>
                            </g>
                        </g>
                    </g>
                </g>
                <g id="body-Clipped" transform="translate(4.000000, 4.000000)">
                    <mask id="mask-20" fill="white">
                        <use xlink:href="#path-19"></use>
                    </mask>
                    <g id="path-1"></g>
                    <path d="M627.364278,122.059386 C627.397453,123.702259 627.41412,125.349183 627.41412,127 C627.41412,197.007394 597.439591,260.013862 549.624386,303.885551 C561.024561,327.508379 567.41412,354.008009 567.41412,382 C567.41412,481.411255 486.825375,562 387.41412,562 C288.002865,562 207.41412,481.411255 207.41412,382 C207.41412,354.008009 213.803679,327.508379 225.203855,303.880051 C177.388649,260.013862 147.41412,197.007394 147.41412,127 C147.41412,125.349183 147.430787,123.702259 147.463963,122.059386 C214.308656,172.259342 297.388237,202 387.41412,202 C475.77968,202 557.452792,173.346224 623.648925,124.823203 L627.364278,122.059386 Z" id="body" fill="#A97C60" fill-rule="nonzero" mask="url(#mask-20)"></path>
                </g>
                <g id="wings-Clipped" transform="translate(4.000000, 4.000000)">
                    <mask id="mask-22" fill="white">
                        <use xlink:href="#path-21"></use>
                    </mask>
                    <g id="path-1"></g>
                    <g id="wings" mask="url(#mask-22)">
                        <g transform="translate(148.000000, 367.000000)" id="Group">
                            <g>
                                <path d="M414.41412,1.70530257e-13 C430.727126,1.70530257e-13 444.189134,12.206574 446.164564,27.9841426 C448.51947,37.5985307 450.649395,53.9919151 454.41412,79.7418185 C461.929834,131.147667 485.322382,137.212835 476.031803,139.876866 C468.920205,141.916084 452.96894,132.072526 440.518075,108.651351 C445.507506,125.601405 448.590586,134.620285 442.668117,135.664576 C435.345194,136.955805 421.717366,124.739167 412.392304,99.5915466 C414.12703,114.855593 415.006793,123 409.41412,123 C399.749137,123 385.47369,85.6962891 382.41412,53.6113281 C380.965012,38.4148833 381.412059,29.926886 383.188541,24.9709143 C386.391248,10.6796278 399.155504,1.70530257e-13 414.41412,1.70530257e-13 Z" id="wing-R" fill="#714040" fill-rule="nonzero"></path>
                                <path d="M32.8652796,1.70530257e-13 C49.1782854,1.70530257e-13 62.6402931,12.206574 64.6157231,27.9841426 C66.9706296,37.5985307 69.100554,53.9919151 72.8652796,79.7418185 C80.3809936,131.147667 103.773541,137.212835 94.4829629,139.876866 C87.3713648,141.916084 71.420099,132.072526 58.9692346,108.651351 C63.9586652,125.601405 67.0417455,134.620285 61.1192765,135.664576 C53.7963533,136.955805 40.1685252,124.739167 30.8434633,99.5915466 C32.5781899,114.855593 33.4579521,123 27.8652796,123 C18.2002964,123 3.92484988,85.6962891 0.865279572,53.6113281 C-0.583828985,38.4148833 -0.136781442,29.926886 1.6397005,24.9709143 C4.84240747,10.6796278 17.6066631,1.70530257e-13 32.8652796,1.70530257e-13 Z" id="wing-L" fill="#714040" fill-rule="nonzero" transform="translate(48.315724, 70.069135) scale(-1, 1) translate(-48.315724, -70.069135) "></path>
                            </g>
                        </g>
                    </g>
                </g>
                <g id="face-Clipped" transform="translate(4.000000, 4.000000)">
                    <mask id="mask-24" fill="white">
                        <use xlink:href="#path-23"></use>
                    </mask>
                    <g id="path-1"></g>
                    <g id="face" mask="url(#mask-24)">
                        <g transform="translate(255.000000, 311.000000)" id="Group">
                            <g>
                                <g id="eyes" fill-rule="nonzero">
                                    <g id="left-eye">
                                        <ellipse id="eye-L" fill="#FFFDFD" cx="59.9225806" cy="60" rx="59.9225806" ry="60"></ellipse>
                                        <ellipse id="Oval" stroke="#436CAA" stroke-width="6" fill="#5E87C7" cx="59.9225806" cy="60" rx="35.9496774" ry="36"></ellipse>
                                        <ellipse id="Oval-Copy-36" fill="#14094F" cx="59.9225806" cy="60" rx="17.9767742" ry="18"></ellipse>
                                        <g id="animated-copy" transform="translate(51.000000, 29.000000)" fill="#FFFFFF" fill-opacity="0.92">
                                            <path d="M7.9896774,9 C12.4022544,9 15.9793548,12.581722 15.9793548,17 C15.9793548,21.418278 12.4022544,25 7.9896774,25 C3.5771004,25 0,21.418278 0,17 C0,12.581722 3.5771004,9 7.9896774,9 Z M7.4941935,0 C9.9762681,0 11.9883871,2.01471863 11.9883871,4.5 C11.9883871,6.98528137 9.9762681,9 7.4941935,9 C5.012119,9 3,6.98528137 3,4.5 C3,2.01471863 5.012119,0 7.4941935,0 Z" id="T"></path>
                                        </g>
                                    </g>
                                    <g id="right-eye" transform="translate(143.814194, 2.000000)">
                                        <ellipse id="eye-R" fill="#FFFDFD" cx="59.9225806" cy="60" rx="59.9225806" ry="60"></ellipse>
                                        <ellipse id="Oval-Copy-10" stroke="#436CAA" stroke-width="6" fill="#5E87C7" cx="59.9225806" cy="60" rx="35.9496774" ry="36"></ellipse>
                                        <ellipse id="Oval" fill="#14094F" cx="59.9225806" cy="60" rx="17.9767742" ry="18"></ellipse>
                                        <g id="animated" transform="translate(52.185806, 27.000000)" fill="#FFFFFF" fill-opacity="0.92">
                                            <path d="M7.9896774,9 C12.4022544,9 15.9793548,12.581722 15.9793548,17 C15.9793548,21.418278 12.4022544,25 7.9896774,25 C3.5771004,25 0,21.418278 0,17 C0,12.581722 3.5771004,9 7.9896774,9 Z M7.4941935,0 C9.9762681,0 11.9883871,2.01471863 11.9883871,4.5 C11.9883871,6.98528137 9.9762681,9 7.4941935,9 C5.012119,9 3,6.98528137 3,4.5 C3,2.01471863 5.012119,0 7.4941935,0 Z" id="T"></path>
                                        </g>
                                    </g>
                                </g>
                                <g id="nose" transform="translate(131.500000, 121.652344) scale(-1, 1) rotate(-180.000000) translate(-131.500000, -121.652344) translate(106.000000, 92.652344)">
                                    <g id="path-3-link" fill="#000000" fill-rule="nonzero">
                                        <polygon id="path-3" points="25.829677 0 50.797419 35.910156 25.829677 57.652344 0.861935 35.910156"></polygon>
                                    </g>
                                    <g id="path-3-link" fill="#FFD438">
                                        <polygon id="path-3" points="25.829677 0 50.797419 35.910156 25.829677 57.652344 0.861935 35.910156"></polygon>
                                    </g>
                                </g>
                            </g>
                        </g>
                    </g>
                </g>
            </g>
            <g id="3" transform="translate(1580.000000, 0.000000)">
                <circle id="Oval" stroke="#04246C" stroke-width="8" cx="391" cy="391" r="391"></circle>
                <g id="Rectangle-Clipped" transform="translate(4.000000, 4.000000)">
                    <mask id="mask-26" fill="white">
                        <use xlink:href="#path-25"></use>
                    </mask>
                    <g id="path-1"></g>
                    <rect id="Rectangle" fill="#FFEDED" fill-rule="nonzero" mask="url(#mask-26)" x="0" y="0" width="774" height="774"></rect>
                </g>
                <g id="Oval-Clipped" transform="translate(4.000000, 4.000000)">
                    <mask id="mask-28" fill="white">
                        <use xlink:href="#path-27"></use>
                    </mask>
                    <g id="path-1"></g>
                    <ellipse id="Oval" fill="#C4D8DB" fill-rule="nonzero" mask="url(#mask-28)" cx="387" cy="685" rx="387" ry="111"></ellipse>
                </g>
                <g id="lapki-Clipped" transform="translate(4.000000, 4.000000)">
                    <mask id="mask-30" fill="white">
                        <use xlink:href="#path-29"></use>
                    </mask>
                    <g id="path-1"></g>
                    <g id="lapki" mask="url(#mask-30)">
                        <g transform="translate(324.000000, 547.000000)" id="Group">
                            <g>
                                <path d="M30.5858799,0 L30.5852204,106.558811 C43.0869497,110.323249 58.5126188,132.059386 52.7589713,139.581478 C46.4506186,147.82877 8.16551342,148.444705 1.38603146,139.581478 C-4.64010282,131.703148 10.1942617,111.297691 22.5854043,106.859994 L22.5858799,0 L30.5858799,0 Z" id="leg-L" stroke="#B58502" fill="#F7B500" fill-rule="nonzero"></path>
                                <path d="M104.58588,0 L104.58522,106.558811 C117.08695,110.323249 132.512619,132.059386 126.758971,139.581478 C120.450619,147.82877 82.1655134,148.444705 75.3860315,139.581478 C69.3598972,131.703148 84.1942617,111.297691 96.5854043,106.859994 L96.5858799,0 L104.58588,0 Z" id="leg-R" stroke="#B58502" fill="#F7B500" fill-rule="nonzero"></path>
                            </g>
                        </g>
                    </g>
                </g>
                <g id="body-Clipped" transform="translate(4.000000, 4.000000)">
                    <mask id="mask-32" fill="white">
                        <use xlink:href="#path-31"></use>
                    </mask>
                    <g id="path-1"></g>
                    <path d="M627.364278,122.059386 C627.397453,123.702259 627.41412,125.349183 627.41412,127 C627.41412,197.007394 597.439591,260.013862 549.624386,303.885551 C561.024561,327.508379 567.41412,354.008009 567.41412,382 C567.41412,481.411255 486.825375,562 387.41412,562 C288.002865,562 207.41412,481.411255 207.41412,382 C207.41412,354.008009 213.803679,327.508379 225.203855,303.880051 C177.388649,260.013862 147.41412,197.007394 147.41412,127 C147.41412,125.349183 147.430787,123.702259 147.463963,122.059386 C214.308656,172.259342 297.388237,202 387.41412,202 C475.77968,202 557.452792,173.346224 623.648925,124.823203 L627.364278,122.059386 Z" id="body" fill="#A97C60" fill-rule="nonzero" mask="url(#mask-32)"></path>
                </g>
                <g id="wings-Clipped" transform="translate(4.000000, 4.000000)">
                    <mask id="mask-34" fill="white">
                        <use xlink:href="#path-33"></use>
                    </mask>
                    <g id="path-1"></g>
                    <g id="wings" mask="url(#mask-34)">
                        <g transform="translate(148.000000, 367.000000)" id="Group">
                            <g>
                                <path d="M414.41412,1.70530257e-13 C430.727126,1.70530257e-13 444.189134,12.206574 446.164564,27.9841426 C448.51947,37.5985307 450.649395,53.9919151 454.41412,79.7418185 C461.929834,131.147667 485.322382,137.212835 476.031803,139.876866 C468.920205,141.916084 452.96894,132.072526 440.518075,108.651351 C445.507506,125.601405 448.590586,134.620285 442.668117,135.664576 C435.345194,136.955805 421.717366,124.739167 412.392304,99.5915466 C414.12703,114.855593 415.006793,123 409.41412,123 C399.749137,123 385.47369,85.6962891 382.41412,53.6113281 C380.965012,38.4148833 381.412059,29.926886 383.188541,24.9709143 C386.391248,10.6796278 399.155504,1.70530257e-13 414.41412,1.70530257e-13 Z" id="wing-R" fill="#714040" fill-rule="nonzero"></path>
                                <path d="M32.8652796,1.70530257e-13 C49.1782854,1.70530257e-13 62.6402931,12.206574 64.6157231,27.9841426 C66.9706296,37.5985307 69.100554,53.9919151 72.8652796,79.7418185 C80.3809936,131.147667 103.773541,137.212835 94.4829629,139.876866 C87.3713648,141.916084 71.420099,132.072526 58.9692346,108.651351 C63.9586652,125.601405 67.0417455,134.620285 61.1192765,135.664576 C53.7963533,136.955805 40.1685252,124.739167 30.8434633,99.5915466 C32.5781899,114.855593 33.4579521,123 27.8652796,123 C18.2002964,123 3.92484988,85.6962891 0.865279572,53.6113281 C-0.583828985,38.4148833 -0.136781442,29.926886 1.6397005,24.9709143 C4.84240747,10.6796278 17.6066631,1.70530257e-13 32.8652796,1.70530257e-13 Z" id="wing-L" fill="#714040" fill-rule="nonzero" transform="translate(48.315724, 70.069135) scale(-1, 1) translate(-48.315724, -70.069135) "></path>
                            </g>
                        </g>
                    </g>
                </g>
                <g id="face-Clipped" transform="translate(4.000000, 4.000000)">
                    <mask id="mask-36" fill="white">
                        <use xlink:href="#path-35"></use>
                    </mask>
                    <g id="path-1"></g>
                    <g id="face" mask="url(#mask-36)">
                        <g transform="translate(255.000000, 311.000000)" id="Group">
                            <g>
                                <g id="eyes" fill-rule="nonzero">
                                    <g id="left-eye">
                                        <ellipse id="eye-L" fill="#FFFDFD" cx="59.9225806" cy="60" rx="59.9225806" ry="60"></ellipse>
                                        <ellipse id="Oval" stroke="#436CAA" stroke-width="6" fill="#5E87C7" cx="59.9225806" cy="60" rx="35.9496774" ry="36"></ellipse>
                                        <ellipse id="Oval-Copy-36" fill="#14094F" cx="59.9225806" cy="60" rx="17.9767742" ry="18"></ellipse>
                                        <g id="animated-copy" transform="translate(63.000000, 37.000000)" fill="#FFFFFF" fill-opacity="0.92">
                                            <g id="TR" transform="translate(10.500000, 11.000000) scale(-1, 1) translate(-10.500000, -11.000000) ">
                                                <path d="M12.9832258,6 C17.3958028,6 20.9729032,9.581722 20.9729032,14 C20.9729032,18.418278 17.3958028,22 12.9832258,22 C8.57064881,22 4.99354839,18.418278 4.99354839,14 C4.99354839,9.581722 8.57064881,6 12.9832258,6 Z M4.49419355,0 C6.97626811,0 8.9883871,2.01471863 8.9883871,4.5 C8.9883871,6.98528137 6.97626811,9 4.49419355,9 C2.01211899,9 0,6.98528137 0,4.5 C0,2.01471863 2.01211899,0 4.49419355,0 Z" id="Combined-Shape"></path>
                                            </g>
                                        </g>
                                    </g>
                                    <g id="right-eye" transform="translate(143.814194, 2.000000)">
                                        <ellipse id="eye-R" fill="#FFFDFD" cx="59.9225806" cy="60" rx="59.9225806" ry="60"></ellipse>
                                        <ellipse id="Oval-Copy-10" stroke="#436CAA" stroke-width="6" fill="#5E87C7" cx="59.9225806" cy="60" rx="35.9496774" ry="36"></ellipse>
                                        <ellipse id="Oval" fill="#14094F" cx="59.9225806" cy="60" rx="17.9767742" ry="18"></ellipse>
                                        <g id="animated" transform="translate(64.185806, 35.000000)" fill="#FFFFFF" fill-opacity="0.92">
                                            <g id="TR" transform="translate(10.500000, 11.000000) scale(-1, 1) translate(-10.500000, -11.000000) ">
                                                <path d="M12.9832258,6 C17.3958028,6 20.9729032,9.581722 20.9729032,14 C20.9729032,18.418278 17.3958028,22 12.9832258,22 C8.57064881,22 4.99354839,18.418278 4.99354839,14 C4.99354839,9.581722 8.57064881,6 12.9832258,6 Z M4.49419355,0 C6.97626811,0 8.9883871,2.01471863 8.9883871,4.5 C8.9883871,6.98528137 6.97626811,9 4.49419355,9 C2.01211899,9 0,6.98528137 0,4.5 C0,2.01471863 2.01211899,0 4.49419355,0 Z" id="Combined-Shape"></path>
                                            </g>
                                        </g>
                                    </g>
                                </g>
                                <g id="nose" transform="translate(131.500000, 121.652344) scale(-1, 1) rotate(-180.000000) translate(-131.500000, -121.652344) translate(106.000000, 92.652344)">
                                    <g id="path-3-link" fill="#000000" fill-rule="nonzero">
                                        <polygon id="path-3" points="25.829677 0 50.797419 35.910156 25.829677 57.652344 0.861935 35.910156"></polygon>
                                    </g>
                                    <g id="path-3-link" fill="#FFD438">
                                        <polygon id="path-3" points="25.829677 0 50.797419 35.910156 25.829677 57.652344 0.861935 35.910156"></polygon>
                                    </g>
                                </g>
                            </g>
                        </g>
                    </g>
                </g>
            </g>
            <g id="4" transform="translate(2370.000000, 0.000000)">
                <circle id="Oval" stroke="#04246C" stroke-width="8" cx="391" cy="391" r="391"></circle>
                <g id="Rectangle-Clipped" transform="translate(4.000000, 4.000000)">
                    <mask id="mask-38" fill="white">
                        <use xlink:href="#path-37"></use>
                    </mask>
                    <g id="path-1"></g>
                    <rect id="Rectangle" fill="#FFEDED" fill-rule="nonzero" mask="url(#mask-38)" x="0" y="0" width="774" height="774"></rect>
                </g>
                <g id="Oval-Clipped" transform="translate(4.000000, 4.000000)">
                    <mask id="mask-40" fill="white">
                        <use xlink:href="#path-39"></use>
                    </mask>
                    <g id="path-1"></g>
                    <ellipse id="Oval" fill="#C4D8DB" fill-rule="nonzero" mask="url(#mask-40)" cx="387" cy="685" rx="387" ry="111"></ellipse>
                </g>
                <g id="lapki-Clipped" transform="translate(4.000000, 4.000000)">
                    <mask id="mask-42" fill="white">
                        <use xlink:href="#path-41"></use>
                    </mask>
                    <g id="path-1"></g>
                    <g id="lapki" mask="url(#mask-42)">
                        <g transform="translate(324.000000, 547.000000)" id="Group">
                            <g>
                                <path d="M30.5858799,0 L30.5852204,106.558811 C43.0869497,110.323249 58.5126188,132.059386 52.7589713,139.581478 C46.4506186,147.82877 8.16551342,148.444705 1.38603146,139.581478 C-4.64010282,131.703148 10.1942617,111.297691 22.5854043,106.859994 L22.5858799,0 L30.5858799,0 Z" id="leg-L" stroke="#B58502" fill="#F7B500" fill-rule="nonzero"></path>
                                <path d="M104.58588,0 L104.58522,106.558811 C117.08695,110.323249 132.512619,132.059386 126.758971,139.581478 C120.450619,147.82877 82.1655134,148.444705 75.3860315,139.581478 C69.3598972,131.703148 84.1942617,111.297691 96.5854043,106.859994 L96.5858799,0 L104.58588,0 Z" id="leg-R" stroke="#B58502" fill="#F7B500" fill-rule="nonzero"></path>
                            </g>
                        </g>
                    </g>
                </g>
                <g id="body-Clipped" transform="translate(4.000000, 4.000000)">
                    <mask id="mask-44" fill="white">
                        <use xlink:href="#path-43"></use>
                    </mask>
                    <g id="path-1"></g>
                    <path d="M627.364278,122.059386 C627.397453,123.702259 627.41412,125.349183 627.41412,127 C627.41412,197.007394 597.439591,260.013862 549.624386,303.885551 C561.024561,327.508379 567.41412,354.008009 567.41412,382 C567.41412,481.411255 486.825375,562 387.41412,562 C288.002865,562 207.41412,481.411255 207.41412,382 C207.41412,354.008009 213.803679,327.508379 225.203855,303.880051 C177.388649,260.013862 147.41412,197.007394 147.41412,127 C147.41412,125.349183 147.430787,123.702259 147.463963,122.059386 C214.308656,172.259342 297.388237,202 387.41412,202 C475.77968,202 557.452792,173.346224 623.648925,124.823203 L627.364278,122.059386 Z" id="body" fill="#A97C60" fill-rule="nonzero" mask="url(#mask-44)"></path>
                </g>
                <g id="wings-Clipped" transform="translate(4.000000, 4.000000)">
                    <mask id="mask-46" fill="white">
                        <use xlink:href="#path-45"></use>
                    </mask>
                    <g id="path-1"></g>
                    <g id="wings" mask="url(#mask-46)">
                        <g transform="translate(148.000000, 367.000000)" id="Group">
                            <g>
                                <path d="M414.41412,1.70530257e-13 C430.727126,1.70530257e-13 444.189134,12.206574 446.164564,27.9841426 C448.51947,37.5985307 450.649395,53.9919151 454.41412,79.7418185 C461.929834,131.147667 485.322382,137.212835 476.031803,139.876866 C468.920205,141.916084 452.96894,132.072526 440.518075,108.651351 C445.507506,125.601405 448.590586,134.620285 442.668117,135.664576 C435.345194,136.955805 421.717366,124.739167 412.392304,99.5915466 C414.12703,114.855593 415.006793,123 409.41412,123 C399.749137,123 385.47369,85.6962891 382.41412,53.6113281 C380.965012,38.4148833 381.412059,29.926886 383.188541,24.9709143 C386.391248,10.6796278 399.155504,1.70530257e-13 414.41412,1.70530257e-13 Z" id="wing-R" fill="#714040" fill-rule="nonzero"></path>
                                <path d="M32.8652796,1.70530257e-13 C49.1782854,1.70530257e-13 62.6402931,12.206574 64.6157231,27.9841426 C66.9706296,37.5985307 69.100554,53.9919151 72.8652796,79.7418185 C80.3809936,131.147667 103.773541,137.212835 94.4829629,139.876866 C87.3713648,141.916084 71.420099,132.072526 58.9692346,108.651351 C63.9586652,125.601405 67.0417455,134.620285 61.1192765,135.664576 C53.7963533,136.955805 40.1685252,124.739167 30.8434633,99.5915466 C32.5781899,114.855593 33.4579521,123 27.8652796,123 C18.2002964,123 3.92484988,85.6962891 0.865279572,53.6113281 C-0.583828985,38.4148833 -0.136781442,29.926886 1.6397005,24.9709143 C4.84240747,10.6796278 17.6066631,1.70530257e-13 32.8652796,1.70530257e-13 Z" id="wing-L" fill="#714040" fill-rule="nonzero" transform="translate(48.315724, 70.069135) scale(-1, 1) translate(-48.315724, -70.069135) "></path>
                            </g>
                        </g>
                    </g>
                </g>
                <g id="face-Clipped" transform="translate(4.000000, 4.000000)">
                    <mask id="mask-48" fill="white">
                        <use xlink:href="#path-47"></use>
                    </mask>
                    <g id="path-1"></g>
                    <g id="face" mask="url(#mask-48)">
                        <g transform="translate(255.000000, 311.000000)" id="Group">
                            <g>
                                <g id="eyes" fill-rule="nonzero">
                                    <g id="left-eye">
                                        <ellipse id="eye-L" fill="#FFFDFD" cx="59.9225806" cy="60" rx="59.9225806" ry="60"></ellipse>
                                        <ellipse id="Oval" stroke="#436CAA" stroke-width="6" fill="#5E87C7" cx="59.9225806" cy="60" rx="35.9496774" ry="36"></ellipse>
                                        <ellipse id="Oval-Copy-36" fill="#14094F" cx="59.9225806" cy="60" rx="17.9767742" ry="18"></ellipse>
                                        <g id="animated-copy" transform="translate(68.000000, 54.000000)" fill="#FFFFFF" fill-opacity="0.92">
                                            <path d="M16.9896766,0 C21.4022536,0 24.979354,3.581722 24.979354,8 C24.979354,12.418278 21.4022536,16 16.9896766,16 C12.5770996,16 8.9999992,12.418278 8.9999992,8 C8.9999992,3.581722 12.5770996,0 16.9896766,0 Z M4.4941927,4 C6.9762673,4 8.9883863,6.0147186 8.9883863,8.5 C8.9883863,10.9852814 6.9762673,13 4.4941927,13 C2.0121182,13 -7.99999995e-07,10.9852814 -7.99999995e-07,8.5 C-7.99999995e-07,6.0147186 2.0121182,4 4.4941927,4 Z" id="R" transform="translate(12.489677, 8.000000) rotate(180.000000) translate(-12.489677, -8.000000) "></path>
                                        </g>
                                    </g>
                                    <g id="right-eye" transform="translate(143.814194, 2.000000)">
                                        <ellipse id="eye-R" fill="#FFFDFD" cx="59.9225806" cy="60" rx="59.9225806" ry="60"></ellipse>
                                        <ellipse id="Oval-Copy-10" stroke="#436CAA" stroke-width="6" fill="#5E87C7" cx="59.9225806" cy="60" rx="35.9496774" ry="36"></ellipse>
                                        <ellipse id="Oval" fill="#14094F" cx="59.9225806" cy="60" rx="17.9767742" ry="18"></ellipse>
                                        <g id="animated" transform="translate(69.185806, 52.000000)" fill="#FFFFFF" fill-opacity="0.92">
                                            <path d="M16.9896766,0 C21.4022536,0 24.979354,3.581722 24.979354,8 C24.979354,12.418278 21.4022536,16 16.9896766,16 C12.5770996,16 8.9999992,12.418278 8.9999992,8 C8.9999992,3.581722 12.5770996,0 16.9896766,0 Z M4.4941927,4 C6.9762673,4 8.9883863,6.0147186 8.9883863,8.5 C8.9883863,10.9852814 6.9762673,13 4.4941927,13 C2.0121182,13 -7.99999995e-07,10.9852814 -7.99999995e-07,8.5 C-7.99999995e-07,6.0147186 2.0121182,4 4.4941927,4 Z" id="R" transform="translate(12.489677, 8.000000) rotate(180.000000) translate(-12.489677, -8.000000) "></path>
                                        </g>
                                    </g>
                                </g>
                                <g id="nose" transform="translate(131.500000, 121.652344) scale(-1, 1) rotate(-180.000000) translate(-131.500000, -121.652344) translate(106.000000, 92.652344)">
                                    <g id="path-3-link" fill="#000000" fill-rule="nonzero">
                                        <polygon id="path-3" points="25.829677 0 50.797419 35.910156 25.829677 57.652344 0.861935 35.910156"></polygon>
                                    </g>
                                    <g id="path-3-link" fill="#FFD438">
                                        <polygon id="path-3" points="25.829677 0 50.797419 35.910156 25.829677 57.652344 0.861935 35.910156"></polygon>
                                    </g>
                                </g>
                            </g>
                        </g>
                    </g>
                </g>
            </g>
            <g id="5" transform="translate(3160.000000, 0.000000)">
                <circle id="Oval" stroke="#04246C" stroke-width="8" cx="391" cy="391" r="391"></circle>
                <g id="Rectangle-Clipped" transform="translate(4.000000, 4.000000)">
                    <mask id="mask-50" fill="white">
                        <use xlink:href="#path-49"></use>
                    </mask>
                    <g id="path-1"></g>
                    <rect id="Rectangle" fill="#FFEDED" fill-rule="nonzero" mask="url(#mask-50)" x="0" y="0" width="774" height="774"></rect>
                </g>
                <g id="Oval-Clipped" transform="translate(4.000000, 4.000000)">
                    <mask id="mask-52" fill="white">
                        <use xlink:href="#path-51"></use>
                    </mask>
                    <g id="path-1"></g>
                    <ellipse id="Oval" fill="#C4D8DB" fill-rule="nonzero" mask="url(#mask-52)" cx="387" cy="685" rx="387" ry="111"></ellipse>
                </g>
                <g id="lapki-Clipped" transform="translate(4.000000, 4.000000)">
                    <mask id="mask-54" fill="white">
                        <use xlink:href="#path-53"></use>
                    </mask>
                    <g id="path-1"></g>
                    <g id="lapki" mask="url(#mask-54)">
                        <g transform="translate(324.000000, 547.000000)" id="Group">
                            <g>
                                <path d="M30.5858799,0 L30.5852204,106.558811 C43.0869497,110.323249 58.5126188,132.059386 52.7589713,139.581478 C46.4506186,147.82877 8.16551342,148.444705 1.38603146,139.581478 C-4.64010282,131.703148 10.1942617,111.297691 22.5854043,106.859994 L22.5858799,0 L30.5858799,0 Z" id="leg-L" stroke="#B58502" fill="#F7B500" fill-rule="nonzero"></path>
                                <path d="M104.58588,0 L104.58522,106.558811 C117.08695,110.323249 132.512619,132.059386 126.758971,139.581478 C120.450619,147.82877 82.1655134,148.444705 75.3860315,139.581478 C69.3598972,131.703148 84.1942617,111.297691 96.5854043,106.859994 L96.5858799,0 L104.58588,0 Z" id="leg-R" stroke="#B58502" fill="#F7B500" fill-rule="nonzero"></path>
                            </g>
                        </g>
                    </g>
                </g>
                <g id="body-Clipped" transform="translate(4.000000, 4.000000)">
                    <mask id="mask-56" fill="white">
                        <use xlink:href="#path-55"></use>
                    </mask>
                    <g id="path-1"></g>
                    <path d="M627.364278,122.059386 C627.397453,123.702259 627.41412,125.349183 627.41412,127 C627.41412,197.007394 597.439591,260.013862 549.624386,303.885551 C561.024561,327.508379 567.41412,354.008009 567.41412,382 C567.41412,481.411255 486.825375,562 387.41412,562 C288.002865,562 207.41412,481.411255 207.41412,382 C207.41412,354.008009 213.803679,327.508379 225.203855,303.880051 C177.388649,260.013862 147.41412,197.007394 147.41412,127 C147.41412,125.349183 147.430787,123.702259 147.463963,122.059386 C214.308656,172.259342 297.388237,202 387.41412,202 C475.77968,202 557.452792,173.346224 623.648925,124.823203 L627.364278,122.059386 Z" id="body" fill="#A97C60" fill-rule="nonzero" mask="url(#mask-56)"></path>
                </g>
                <g id="wings-Clipped" transform="translate(4.000000, 4.000000)">
                    <mask id="mask-58" fill="white">
                        <use xlink:href="#path-57"></use>
                    </mask>
                    <g id="path-1"></g>
                    <g id="wings" mask="url(#mask-58)">
                        <g transform="translate(148.000000, 367.000000)" id="Group">
                            <g>
                                <path d="M414.41412,1.70530257e-13 C430.727126,1.70530257e-13 444.189134,12.206574 446.164564,27.9841426 C448.51947,37.5985307 450.649395,53.9919151 454.41412,79.7418185 C461.929834,131.147667 485.322382,137.212835 476.031803,139.876866 C468.920205,141.916084 452.96894,132.072526 440.518075,108.651351 C445.507506,125.601405 448.590586,134.620285 442.668117,135.664576 C435.345194,136.955805 421.717366,124.739167 412.392304,99.5915466 C414.12703,114.855593 415.006793,123 409.41412,123 C399.749137,123 385.47369,85.6962891 382.41412,53.6113281 C380.965012,38.4148833 381.412059,29.926886 383.188541,24.9709143 C386.391248,10.6796278 399.155504,1.70530257e-13 414.41412,1.70530257e-13 Z" id="wing-R" fill="#714040" fill-rule="nonzero"></path>
                                <path d="M32.8652796,1.70530257e-13 C49.1782854,1.70530257e-13 62.6402931,12.206574 64.6157231,27.9841426 C66.9706296,37.5985307 69.100554,53.9919151 72.8652796,79.7418185 C80.3809936,131.147667 103.773541,137.212835 94.4829629,139.876866 C87.3713648,141.916084 71.420099,132.072526 58.9692346,108.651351 C63.9586652,125.601405 67.0417455,134.620285 61.1192765,135.664576 C53.7963533,136.955805 40.1685252,124.739167 30.8434633,99.5915466 C32.5781899,114.855593 33.4579521,123 27.8652796,123 C18.2002964,123 3.92484988,85.6962891 0.865279572,53.6113281 C-0.583828985,38.4148833 -0.136781442,29.926886 1.6397005,24.9709143 C4.84240747,10.6796278 17.6066631,1.70530257e-13 32.8652796,1.70530257e-13 Z" id="wing-L" fill="#714040" fill-rule="nonzero" transform="translate(48.315724, 70.069135) scale(-1, 1) translate(-48.315724, -70.069135) "></path>
                            </g>
                        </g>
                    </g>
                </g>
                <g id="face-Clipped" transform="translate(4.000000, 4.000000)">
                    <mask id="mask-60" fill="white">
                        <use xlink:href="#path-59"></use>
                    </mask>
                    <g id="path-1"></g>
                    <g id="face" mask="url(#mask-60)">
                        <g transform="translate(255.000000, 311.000000)" id="Group">
                            <g>
                                <g id="eyes" fill-rule="nonzero">
                                    <g id="left-eye">
                                        <ellipse id="eye-L" fill="#FFFDFD" cx="59.9225806" cy="60" rx="59.9225806" ry="60"></ellipse>
                                        <ellipse id="Oval" stroke="#436CAA" stroke-width="6" fill="#5E87C7" cx="59.9225806" cy="60" rx="35.9496774" ry="36"></ellipse>
                                        <ellipse id="Oval-Copy-36" fill="#14094F" cx="59.9225806" cy="60" rx="17.9767742" ry="18"></ellipse>
                                        <g id="animated-copy" transform="translate(63.000000, 65.000000)" fill="#FFFFFF" fill-opacity="0.92">
                                            <g id="BR" transform="translate(10.500000, 11.000000) rotate(180.000000) translate(-10.500000, -11.000000) ">
                                                <path d="M12.9832258,6 C17.3958028,6 20.9729032,9.581722 20.9729032,14 C20.9729032,18.418278 17.3958028,22 12.9832258,22 C8.57064881,22 4.99354839,18.418278 4.99354839,14 C4.99354839,9.581722 8.57064881,6 12.9832258,6 Z M4.49419355,0 C6.97626811,0 8.9883871,2.01471863 8.9883871,4.5 C8.9883871,6.98528137 6.97626811,9 4.49419355,9 C2.01211899,9 0,6.98528137 0,4.5 C0,2.01471863 2.01211899,0 4.49419355,0 Z" id="Combined-Shape"></path>
                                            </g>
                                        </g>
                                    </g>
                                    <g id="right-eye" transform="translate(143.814194, 2.000000)">
                                        <ellipse id="eye-R" fill="#FFFDFD" cx="59.9225806" cy="60" rx="59.9225806" ry="60"></ellipse>
                                        <ellipse id="Oval-Copy-10" stroke="#436CAA" stroke-width="6" fill="#5E87C7" cx="59.9225806" cy="60" rx="35.9496774" ry="36"></ellipse>
                                        <ellipse id="Oval" fill="#14094F" cx="59.9225806" cy="60" rx="17.9767742" ry="18"></ellipse>
                                        <g id="animated" transform="translate(64.185806, 63.000000)" fill="#FFFFFF" fill-opacity="0.92">
                                            <g id="BR" transform="translate(10.500000, 11.000000) rotate(180.000000) translate(-10.500000, -11.000000) ">
                                                <path d="M12.9832258,6 C17.3958028,6 20.9729032,9.581722 20.9729032,14 C20.9729032,18.418278 17.3958028,22 12.9832258,22 C8.57064881,22 4.99354839,18.418278 4.99354839,14 C4.99354839,9.581722 8.57064881,6 12.9832258,6 Z M4.49419355,0 C6.97626811,0 8.9883871,2.01471863 8.9883871,4.5 C8.9883871,6.98528137 6.97626811,9 4.49419355,9 C2.01211899,9 0,6.98528137 0,4.5 C0,2.01471863 2.01211899,0 4.49419355,0 Z" id="Combined-Shape"></path>
                                            </g>
                                        </g>
                                    </g>
                                </g>
                                <g id="nose" transform="translate(131.500000, 121.652344) scale(-1, 1) rotate(-180.000000) translate(-131.500000, -121.652344) translate(106.000000, 92.652344)">
                                    <g id="path-3-link" fill="#000000" fill-rule="nonzero">
                                        <polygon id="path-3" points="25.829677 0 50.797419 35.910156 25.829677 57.652344 0.861935 35.910156"></polygon>
                                    </g>
                                    <g id="path-3-link" fill="#FFD438">
                                        <polygon id="path-3" points="25.829677 0 50.797419 35.910156 25.829677 57.652344 0.861935 35.910156"></polygon>
                                    </g>
                                </g>
                            </g>
                        </g>
                    </g>
                </g>
            </g>
            <g id="6" transform="translate(3950.000000, 0.000000)">
                <circle id="Oval" stroke="#04246C" stroke-width="8" cx="391" cy="391" r="391"></circle>
                <g id="Rectangle-Clipped" transform="translate(4.000000, 4.000000)">
                    <mask id="mask-62" fill="white">
                        <use xlink:href="#path-61"></use>
                    </mask>
                    <g id="path-1"></g>
                    <rect id="Rectangle" fill="#FFEDED" fill-rule="nonzero" mask="url(#mask-62)" x="0" y="0" width="774" height="774"></rect>
                </g>
                <g id="Oval-Clipped" transform="translate(4.000000, 4.000000)">
                    <mask id="mask-64" fill="white">
                        <use xlink:href="#path-63"></use>
                    </mask>
                    <g id="path-1"></g>
                    <ellipse id="Oval" fill="#C4D8DB" fill-rule="nonzero" mask="url(#mask-64)" cx="387" cy="685" rx="387" ry="111"></ellipse>
                </g>
                <g id="lapki-Clipped" transform="translate(4.000000, 4.000000)">
                    <mask id="mask-66" fill="white">
                        <use xlink:href="#path-65"></use>
                    </mask>
                    <g id="path-1"></g>
                    <g id="lapki" mask="url(#mask-66)">
                        <g transform="translate(324.000000, 547.000000)" id="Group">
                            <g>
                                <path d="M30.5858799,0 L30.5852204,106.558811 C43.0869497,110.323249 58.5126188,132.059386 52.7589713,139.581478 C46.4506186,147.82877 8.16551342,148.444705 1.38603146,139.581478 C-4.64010282,131.703148 10.1942617,111.297691 22.5854043,106.859994 L22.5858799,0 L30.5858799,0 Z" id="leg-L" stroke="#B58502" fill="#F7B500" fill-rule="nonzero"></path>
                                <path d="M104.58588,0 L104.58522,106.558811 C117.08695,110.323249 132.512619,132.059386 126.758971,139.581478 C120.450619,147.82877 82.1655134,148.444705 75.3860315,139.581478 C69.3598972,131.703148 84.1942617,111.297691 96.5854043,106.859994 L96.5858799,0 L104.58588,0 Z" id="leg-R" stroke="#B58502" fill="#F7B500" fill-rule="nonzero"></path>
                            </g>
                        </g>
                    </g>
                </g>
                <g id="body-Clipped" transform="translate(4.000000, 4.000000)">
                    <mask id="mask-68" fill="white">
                        <use xlink:href="#path-67"></use>
                    </mask>
                    <g id="path-1"></g>
                    <path d="M627.364278,122.059386 C627.397453,123.702259 627.41412,125.349183 627.41412,127 C627.41412,197.007394 597.439591,260.013862 549.624386,303.885551 C561.024561,327.508379 567.41412,354.008009 567.41412,382 C567.41412,481.411255 486.825375,562 387.41412,562 C288.002865,562 207.41412,481.411255 207.41412,382 C207.41412,354.008009 213.803679,327.508379 225.203855,303.880051 C177.388649,260.013862 147.41412,197.007394 147.41412,127 C147.41412,125.349183 147.430787,123.702259 147.463963,122.059386 C214.308656,172.259342 297.388237,202 387.41412,202 C475.77968,202 557.452792,173.346224 623.648925,124.823203 L627.364278,122.059386 Z" id="body" fill="#A97C60" fill-rule="nonzero" mask="url(#mask-68)"></path>
                </g>
                <g id="wings-Clipped" transform="translate(4.000000, 4.000000)">
                    <mask id="mask-70" fill="white">
                        <use xlink:href="#path-69"></use>
                    </mask>
                    <g id="path-1"></g>
                    <g id="wings" mask="url(#mask-70)">
                        <g transform="translate(148.000000, 367.000000)" id="Group">
                            <g>
                                <path d="M414.41412,1.70530257e-13 C430.727126,1.70530257e-13 444.189134,12.206574 446.164564,27.9841426 C448.51947,37.5985307 450.649395,53.9919151 454.41412,79.7418185 C461.929834,131.147667 485.322382,137.212835 476.031803,139.876866 C468.920205,141.916084 452.96894,132.072526 440.518075,108.651351 C445.507506,125.601405 448.590586,134.620285 442.668117,135.664576 C435.345194,136.955805 421.717366,124.739167 412.392304,99.5915466 C414.12703,114.855593 415.006793,123 409.41412,123 C399.749137,123 385.47369,85.6962891 382.41412,53.6113281 C380.965012,38.4148833 381.412059,29.926886 383.188541,24.9709143 C386.391248,10.6796278 399.155504,1.70530257e-13 414.41412,1.70530257e-13 Z" id="wing-R" fill="#714040" fill-rule="nonzero"></path>
                                <path d="M32.8652796,1.70530257e-13 C49.1782854,1.70530257e-13 62.6402931,12.206574 64.6157231,27.9841426 C66.9706296,37.5985307 69.100554,53.9919151 72.8652796,79.7418185 C80.3809936,131.147667 103.773541,137.212835 94.4829629,139.876866 C87.3713648,141.916084 71.420099,132.072526 58.9692346,108.651351 C63.9586652,125.601405 67.0417455,134.620285 61.1192765,135.664576 C53.7963533,136.955805 40.1685252,124.739167 30.8434633,99.5915466 C32.5781899,114.855593 33.4579521,123 27.8652796,123 C18.2002964,123 3.92484988,85.6962891 0.865279572,53.6113281 C-0.583828985,38.4148833 -0.136781442,29.926886 1.6397005,24.9709143 C4.84240747,10.6796278 17.6066631,1.70530257e-13 32.8652796,1.70530257e-13 Z" id="wing-L" fill="#714040" fill-rule="nonzero" transform="translate(48.315724, 70.069135) scale(-1, 1) translate(-48.315724, -70.069135) "></path>
                            </g>
                        </g>
                    </g>
                </g>
                <g id="face-Clipped" transform="translate(4.000000, 4.000000)">
                    <mask id="mask-72" fill="white">
                        <use xlink:href="#path-71"></use>
                    </mask>
                    <g id="path-1"></g>
                    <g id="face" mask="url(#mask-72)">
                        <g transform="translate(255.000000, 311.000000)" id="Group">
                            <g>
                                <g id="eyes" fill-rule="nonzero">
                                    <g id="left-eye">
                                        <ellipse id="eye-L" fill="#FFFDFD" cx="59.9225806" cy="60" rx="59.9225806" ry="60"></ellipse>
                                        <ellipse id="Oval" stroke="#436CAA" stroke-width="6" fill="#5E87C7" cx="59.9225806" cy="60" rx="35.9496774" ry="36"></ellipse>
                                        <ellipse id="Oval-Copy-36" fill="#14094F" cx="59.9225806" cy="60" rx="17.9767742" ry="18"></ellipse>
                                        <g id="animated-copy" transform="translate(51.000000, 70.000000)" fill="#FFFFFF" fill-opacity="0.92">
                                            <path d="M7.9896774,9 C12.4022544,9 15.9793548,12.581722 15.9793548,17 C15.9793548,21.418278 12.4022544,25 7.9896774,25 C3.5771004,25 3.55271368e-15,21.418278 3.55271368e-15,17 C3.55271368e-15,12.581722 3.5771004,9 7.9896774,9 Z M7.4941935,0 C9.9762681,0 11.9883871,2.0147186 11.9883871,4.5 C11.9883871,6.9852814 9.9762681,9 7.4941935,9 C5.012119,9 3,6.9852814 3,4.5 C3,2.0147186 5.012119,0 7.4941935,0 Z" id="B" transform="translate(7.989677, 12.500000) scale(-1, 1) rotate(-180.000000) translate(-7.989677, -12.500000) "></path>
                                        </g>
                                    </g>
                                    <g id="right-eye" transform="translate(143.814194, 2.000000)">
                                        <ellipse id="eye-R" fill="#FFFDFD" cx="59.9225806" cy="60" rx="59.9225806" ry="60"></ellipse>
                                        <ellipse id="Oval-Copy-10" stroke="#436CAA" stroke-width="6" fill="#5E87C7" cx="59.9225806" cy="60" rx="35.9496774" ry="36"></ellipse>
                                        <ellipse id="Oval" fill="#14094F" cx="59.9225806" cy="60" rx="17.9767742" ry="18"></ellipse>
                                        <g id="animated" transform="translate(52.185806, 68.000000)" fill="#FFFFFF" fill-opacity="0.92">
                                            <path d="M7.9896774,9 C12.4022544,9 15.9793548,12.581722 15.9793548,17 C15.9793548,21.418278 12.4022544,25 7.9896774,25 C3.5771004,25 3.55271368e-15,21.418278 3.55271368e-15,17 C3.55271368e-15,12.581722 3.5771004,9 7.9896774,9 Z M7.4941935,0 C9.9762681,0 11.9883871,2.0147186 11.9883871,4.5 C11.9883871,6.9852814 9.9762681,9 7.4941935,9 C5.012119,9 3,6.9852814 3,4.5 C3,2.0147186 5.012119,0 7.4941935,0 Z" id="B" transform="translate(7.989677, 12.500000) scale(-1, 1) rotate(-180.000000) translate(-7.989677, -12.500000) "></path>
                                        </g>
                                    </g>
                                </g>
                                <g id="nose" transform="translate(131.500000, 121.652344) scale(-1, 1) rotate(-180.000000) translate(-131.500000, -121.652344) translate(106.000000, 92.652344)">
                                    <g id="path-3-link" fill="#000000" fill-rule="nonzero">
                                        <polygon id="path-3" points="25.829677 0 50.797419 35.910156 25.829677 57.652344 0.861935 35.910156"></polygon>
                                    </g>
                                    <g id="path-3-link" fill="#FFD438">
                                        <polygon id="path-3" points="25.829677 0 50.797419 35.910156 25.829677 57.652344 0.861935 35.910156"></polygon>
                                    </g>
                                </g>
                            </g>
                        </g>
                    </g>
                </g>
            </g>
            <g id="7" transform="translate(4740.000000, 0.000000)">
                <circle id="Oval" stroke="#04246C" stroke-width="8" cx="391" cy="391" r="391"></circle>
                <g id="Rectangle-Clipped" transform="translate(4.000000, 4.000000)">
                    <mask id="mask-74" fill="white">
                        <use xlink:href="#path-73"></use>
                    </mask>
                    <g id="path-1"></g>
                    <rect id="Rectangle" fill="#FFEDED" fill-rule="nonzero" mask="url(#mask-74)" x="0" y="0" width="774" height="774"></rect>
                </g>
                <g id="Oval-Clipped" transform="translate(4.000000, 4.000000)">
                    <mask id="mask-76" fill="white">
                        <use xlink:href="#path-75"></use>
                    </mask>
                    <g id="path-1"></g>
                    <ellipse id="Oval" fill="#C4D8DB" fill-rule="nonzero" mask="url(#mask-76)" cx="387" cy="685" rx="387" ry="111"></ellipse>
                </g>
                <g id="lapki-Clipped" transform="translate(4.000000, 4.000000)">
                    <mask id="mask-78" fill="white">
                        <use xlink:href="#path-77"></use>
                    </mask>
                    <g id="path-1"></g>
                    <g id="lapki" mask="url(#mask-78)">
                        <g transform="translate(324.000000, 547.000000)" id="Group">
                            <g>
                                <path d="M30.5858799,0 L30.5852204,106.558811 C43.0869497,110.323249 58.5126188,132.059386 52.7589713,139.581478 C46.4506186,147.82877 8.16551342,148.444705 1.38603146,139.581478 C-4.64010282,131.703148 10.1942617,111.297691 22.5854043,106.859994 L22.5858799,0 L30.5858799,0 Z" id="leg-L" stroke="#B58502" fill="#F7B500" fill-rule="nonzero"></path>
                                <path d="M104.58588,0 L104.58522,106.558811 C117.08695,110.323249 132.512619,132.059386 126.758971,139.581478 C120.450619,147.82877 82.1655134,148.444705 75.3860315,139.581478 C69.3598972,131.703148 84.1942617,111.297691 96.5854043,106.859994 L96.5858799,0 L104.58588,0 Z" id="leg-R" stroke="#B58502" fill="#F7B500" fill-rule="nonzero"></path>
                            </g>
                        </g>
                    </g>
                </g>
                <g id="body-Clipped" transform="translate(4.000000, 4.000000)">
                    <mask id="mask-80" fill="white">
                        <use xlink:href="#path-79"></use>
                    </mask>
                    <g id="path-1"></g>
                    <path d="M627.364278,122.059386 C627.397453,123.702259 627.41412,125.349183 627.41412,127 C627.41412,197.007394 597.439591,260.013862 549.624386,303.885551 C561.024561,327.508379 567.41412,354.008009 567.41412,382 C567.41412,481.411255 486.825375,562 387.41412,562 C288.002865,562 207.41412,481.411255 207.41412,382 C207.41412,354.008009 213.803679,327.508379 225.203855,303.880051 C177.388649,260.013862 147.41412,197.007394 147.41412,127 C147.41412,125.349183 147.430787,123.702259 147.463963,122.059386 C214.308656,172.259342 297.388237,202 387.41412,202 C475.77968,202 557.452792,173.346224 623.648925,124.823203 L627.364278,122.059386 Z" id="body" fill="#A97C60" fill-rule="nonzero" mask="url(#mask-80)"></path>
                </g>
                <g id="wings-Clipped" transform="translate(4.000000, 4.000000)">
                    <mask id="mask-82" fill="white">
                        <use xlink:href="#path-81"></use>
                    </mask>
                    <g id="path-1"></g>
                    <g id="wings" mask="url(#mask-82)">
                        <g transform="translate(148.000000, 367.000000)" id="Group">
                            <g>
                                <path d="M414.41412,1.70530257e-13 C430.727126,1.70530257e-13 444.189134,12.206574 446.164564,27.9841426 C448.51947,37.5985307 450.649395,53.9919151 454.41412,79.7418185 C461.929834,131.147667 485.322382,137.212835 476.031803,139.876866 C468.920205,141.916084 452.96894,132.072526 440.518075,108.651351 C445.507506,125.601405 448.590586,134.620285 442.668117,135.664576 C435.345194,136.955805 421.717366,124.739167 412.392304,99.5915466 C414.12703,114.855593 415.006793,123 409.41412,123 C399.749137,123 385.47369,85.6962891 382.41412,53.6113281 C380.965012,38.4148833 381.412059,29.926886 383.188541,24.9709143 C386.391248,10.6796278 399.155504,1.70530257e-13 414.41412,1.70530257e-13 Z" id="wing-R" fill="#714040" fill-rule="nonzero"></path>
                                <path d="M32.8652796,1.70530257e-13 C49.1782854,1.70530257e-13 62.6402931,12.206574 64.6157231,27.9841426 C66.9706296,37.5985307 69.100554,53.9919151 72.8652796,79.7418185 C80.3809936,131.147667 103.773541,137.212835 94.4829629,139.876866 C87.3713648,141.916084 71.420099,132.072526 58.9692346,108.651351 C63.9586652,125.601405 67.0417455,134.620285 61.1192765,135.664576 C53.7963533,136.955805 40.1685252,124.739167 30.8434633,99.5915466 C32.5781899,114.855593 33.4579521,123 27.8652796,123 C18.2002964,123 3.92484988,85.6962891 0.865279572,53.6113281 C-0.583828985,38.4148833 -0.136781442,29.926886 1.6397005,24.9709143 C4.84240747,10.6796278 17.6066631,1.70530257e-13 32.8652796,1.70530257e-13 Z" id="wing-L" fill="#714040" fill-rule="nonzero" transform="translate(48.315724, 70.069135) scale(-1, 1) translate(-48.315724, -70.069135) "></path>
                            </g>
                        </g>
                    </g>
                </g>
                <g id="face-Clipped" transform="translate(4.000000, 4.000000)">
                    <mask id="mask-84" fill="white">
                        <use xlink:href="#path-83"></use>
                    </mask>
                    <g id="path-1"></g>
                    <g id="face" mask="url(#mask-84)">
                        <g transform="translate(255.000000, 311.000000)" id="Group">
                            <g>
                                <g id="eyes" fill-rule="nonzero">
                                    <g id="left-eye">
                                        <ellipse id="eye-L" fill="#FFFDFD" cx="59.9225806" cy="60" rx="59.9225806" ry="60"></ellipse>
                                        <ellipse id="Oval" stroke="#436CAA" stroke-width="6" fill="#5E87C7" cx="59.9225806" cy="60" rx="35.9496774" ry="36"></ellipse>
                                        <ellipse id="Oval-Copy-36" fill="#14094F" cx="59.9225806" cy="60" rx="17.9767742" ry="18"></ellipse>
                                        <g id="animated-copy" transform="translate(33.000000, 65.000000)" fill="#FFFFFF" fill-opacity="0.92">
                                            <g id="BL" transform="translate(11.269032, 11.000000) scale(-1, 1) rotate(-180.000000) translate(-11.269032, -11.000000) translate(0.769032, 0.000000)">
                                                <path d="M12.9832258,6 C17.3958028,6 20.9729032,9.581722 20.9729032,14 C20.9729032,18.418278 17.3958028,22 12.9832258,22 C8.57064881,22 4.99354839,18.418278 4.99354839,14 C4.99354839,9.581722 8.57064881,6 12.9832258,6 Z M4.49419355,0 C6.97626811,0 8.9883871,2.01471863 8.9883871,4.5 C8.9883871,6.98528137 6.97626811,9 4.49419355,9 C2.01211899,9 0,6.98528137 0,4.5 C0,2.01471863 2.01211899,0 4.49419355,0 Z" id="Combined-Shape"></path>
                                            </g>
                                        </g>
                                    </g>
                                    <g id="right-eye" transform="translate(143.814194, 2.000000)">
                                        <ellipse id="eye-R" fill="#FFFDFD" cx="59.9225806" cy="60" rx="59.9225806" ry="60"></ellipse>
                                        <ellipse id="Oval-Copy-10" stroke="#436CAA" stroke-width="6" fill="#5E87C7" cx="59.9225806" cy="60" rx="35.9496774" ry="36"></ellipse>
                                        <ellipse id="Oval" fill="#14094F" cx="59.9225806" cy="60" rx="17.9767742" ry="18"></ellipse>
                                        <g id="animated" transform="translate(34.185806, 63.000000)" fill="#FFFFFF" fill-opacity="0.92">
                                            <g id="BL" transform="translate(11.269032, 11.000000) scale(-1, 1) rotate(-180.000000) translate(-11.269032, -11.000000) translate(0.769032, 0.000000)">
                                                <path d="M12.9832258,6 C17.3958028,6 20.9729032,9.581722 20.9729032,14 C20.9729032,18.418278 17.3958028,22 12.9832258,22 C8.57064881,22 4.99354839,18.418278 4.99354839,14 C4.99354839,9.581722 8.57064881,6 12.9832258,6 Z M4.49419355,0 C6.97626811,0 8.9883871,2.01471863 8.9883871,4.5 C8.9883871,6.98528137 6.97626811,9 4.49419355,9 C2.01211899,9 0,6.98528137 0,4.5 C0,2.01471863 2.01211899,0 4.49419355,0 Z" id="Combined-Shape"></path>
                                            </g>
                                        </g>
                                    </g>
                                </g>
                                <g id="nose" transform="translate(131.500000, 121.652344) scale(-1, 1) rotate(-180.000000) translate(-131.500000, -121.652344) translate(106.000000, 92.652344)">
                                    <g id="path-3-link" fill="#000000" fill-rule="nonzero">
                                        <polygon id="path-3" points="25.829677 0 50.797419 35.910156 25.829677 57.652344 0.861935 35.910156"></polygon>
                                    </g>
                                    <g id="path-3-link" fill="#FFD438">
                                        <polygon id="path-3" points="25.829677 0 50.797419 35.910156 25.829677 57.652344 0.861935 35.910156"></polygon>
                                    </g>
                                </g>
                            </g>
                        </g>
                    </g>
                </g>
            </g>
            <g id="8" transform="translate(5530.000000, 0.000000)">
                <circle id="Oval" stroke="#04246C" stroke-width="8" cx="391" cy="391" r="391"></circle>
                <g id="Rectangle-Clipped" transform="translate(4.000000, 4.000000)">
                    <mask id="mask-86" fill="white">
                        <use xlink:href="#path-85"></use>
                    </mask>
                    <g id="path-1"></g>
                    <rect id="Rectangle" fill="#FFEDED" fill-rule="nonzero" mask="url(#mask-86)" x="0" y="0" width="774" height="774"></rect>
                </g>
                <g id="Oval-Clipped" transform="translate(4.000000, 4.000000)">
                    <mask id="mask-88" fill="white">
                        <use xlink:href="#path-87"></use>
                    </mask>
                    <g id="path-1"></g>
                    <ellipse id="Oval" fill="#C4D8DB" fill-rule="nonzero" mask="url(#mask-88)" cx="387" cy="685" rx="387" ry="111"></ellipse>
                </g>
                <g id="lapki-Clipped" transform="translate(4.000000, 4.000000)">
                    <mask id="mask-90" fill="white">
                        <use xlink:href="#path-89"></use>
                    </mask>
                    <g id="path-1"></g>
                    <g id="lapki" mask="url(#mask-90)">
                        <g transform="translate(324.000000, 547.000000)" id="Group">
                            <g>
                                <path d="M30.5858799,0 L30.5852204,106.558811 C43.0869497,110.323249 58.5126188,132.059386 52.7589713,139.581478 C46.4506186,147.82877 8.16551342,148.444705 1.38603146,139.581478 C-4.64010282,131.703148 10.1942617,111.297691 22.5854043,106.859994 L22.5858799,0 L30.5858799,0 Z" id="leg-L" stroke="#B58502" fill="#F7B500" fill-rule="nonzero"></path>
                                <path d="M104.58588,0 L104.58522,106.558811 C117.08695,110.323249 132.512619,132.059386 126.758971,139.581478 C120.450619,147.82877 82.1655134,148.444705 75.3860315,139.581478 C69.3598972,131.703148 84.1942617,111.297691 96.5854043,106.859994 L96.5858799,0 L104.58588,0 Z" id="leg-R" stroke="#B58502" fill="#F7B500" fill-rule="nonzero"></path>
                            </g>
                        </g>
                    </g>
                </g>
                <g id="body-Clipped" transform="translate(4.000000, 4.000000)">
                    <mask id="mask-92" fill="white">
                        <use xlink:href="#path-91"></use>
                    </mask>
                    <g id="path-1"></g>
                    <path d="M627.364278,122.059386 C627.397453,123.702259 627.41412,125.349183 627.41412,127 C627.41412,197.007394 597.439591,260.013862 549.624386,303.885551 C561.024561,327.508379 567.41412,354.008009 567.41412,382 C567.41412,481.411255 486.825375,562 387.41412,562 C288.002865,562 207.41412,481.411255 207.41412,382 C207.41412,354.008009 213.803679,327.508379 225.203855,303.880051 C177.388649,260.013862 147.41412,197.007394 147.41412,127 C147.41412,125.349183 147.430787,123.702259 147.463963,122.059386 C214.308656,172.259342 297.388237,202 387.41412,202 C475.77968,202 557.452792,173.346224 623.648925,124.823203 L627.364278,122.059386 Z" id="body" fill="#A97C60" fill-rule="nonzero" mask="url(#mask-92)"></path>
                </g>
                <g id="wings-Clipped" transform="translate(4.000000, 4.000000)">
                    <mask id="mask-94" fill="white">
                        <use xlink:href="#path-93"></use>
                    </mask>
                    <g id="path-1"></g>
                    <g id="wings" mask="url(#mask-94)">
                        <g transform="translate(148.000000, 367.000000)" id="Group">
                            <g>
                                <path d="M414.41412,1.70530257e-13 C430.727126,1.70530257e-13 444.189134,12.206574 446.164564,27.9841426 C448.51947,37.5985307 450.649395,53.9919151 454.41412,79.7418185 C461.929834,131.147667 485.322382,137.212835 476.031803,139.876866 C468.920205,141.916084 452.96894,132.072526 440.518075,108.651351 C445.507506,125.601405 448.590586,134.620285 442.668117,135.664576 C435.345194,136.955805 421.717366,124.739167 412.392304,99.5915466 C414.12703,114.855593 415.006793,123 409.41412,123 C399.749137,123 385.47369,85.6962891 382.41412,53.6113281 C380.965012,38.4148833 381.412059,29.926886 383.188541,24.9709143 C386.391248,10.6796278 399.155504,1.70530257e-13 414.41412,1.70530257e-13 Z" id="wing-R" fill="#714040" fill-rule="nonzero"></path>
                                <path d="M32.8652796,1.70530257e-13 C49.1782854,1.70530257e-13 62.6402931,12.206574 64.6157231,27.9841426 C66.9706296,37.5985307 69.100554,53.9919151 72.8652796,79.7418185 C80.3809936,131.147667 103.773541,137.212835 94.4829629,139.876866 C87.3713648,141.916084 71.420099,132.072526 58.9692346,108.651351 C63.9586652,125.601405 67.0417455,134.620285 61.1192765,135.664576 C53.7963533,136.955805 40.1685252,124.739167 30.8434633,99.5915466 C32.5781899,114.855593 33.4579521,123 27.8652796,123 C18.2002964,123 3.92484988,85.6962891 0.865279572,53.6113281 C-0.583828985,38.4148833 -0.136781442,29.926886 1.6397005,24.9709143 C4.84240747,10.6796278 17.6066631,1.70530257e-13 32.8652796,1.70530257e-13 Z" id="wing-L" fill="#714040" fill-rule="nonzero" transform="translate(48.315724, 70.069135) scale(-1, 1) translate(-48.315724, -70.069135) "></path>
                            </g>
                        </g>
                    </g>
                </g>
                <g id="face-Clipped" transform="translate(4.000000, 4.000000)">
                    <mask id="mask-96" fill="white">
                        <use xlink:href="#path-95"></use>
                    </mask>
                    <g id="path-1"></g>
                    <g id="face" mask="url(#mask-96)">
                        <g transform="translate(255.000000, 311.000000)" id="Group">
                            <g>
                                <g id="eyes" fill-rule="nonzero">
                                    <g id="left-eye">
                                        <ellipse id="eye-L" fill="#FFFDFD" cx="59.9225806" cy="60" rx="59.9225806" ry="60"></ellipse>
                                        <ellipse id="Oval" stroke="#436CAA" stroke-width="6" fill="#5E87C7" cx="59.9225806" cy="60" rx="35.9496774" ry="36"></ellipse>
                                        <ellipse id="Oval-Copy-36" fill="#14094F" cx="59.9225806" cy="60" rx="17.9767742" ry="18"></ellipse>
                                        <g id="animated-copy" transform="translate(25.000000, 54.000000)" fill="#FFFFFF" fill-opacity="0.92">
                                            <path d="M16.9896774,0 C21.4022544,0 24.9793548,3.581722 24.9793548,8 C24.9793548,12.418278 21.4022544,16 16.9896774,16 C12.5771004,16 9,12.418278 9,8 C9,3.581722 12.5771004,0 16.9896774,0 Z M4.49419355,4 C6.97626811,4 8.9883871,6.0147186 8.9883871,8.5 C8.9883871,10.9852814 6.97626811,13 4.49419355,13 C2.01211899,13 -2.09610107e-13,10.9852814 -2.09610107e-13,8.5 C-2.09610107e-13,6.0147186 2.01211899,4 4.49419355,4 Z" id="L" transform="translate(12.489677, 8.000000) scale(-1, 1) rotate(-180.000000) translate(-12.489677, -8.000000) "></path>
                                        </g>
                                    </g>
                                    <g id="right-eye" transform="translate(143.814194, 2.000000)">
                                        <ellipse id="eye-R" fill="#FFFDFD" cx="59.9225806" cy="60" rx="59.9225806" ry="60"></ellipse>
                                        <ellipse id="Oval-Copy-10" stroke="#436CAA" stroke-width="6" fill="#5E87C7" cx="59.9225806" cy="60" rx="35.9496774" ry="36"></ellipse>
                                        <ellipse id="Oval" fill="#14094F" cx="59.9225806" cy="60" rx="17.9767742" ry="18"></ellipse>
                                        <g id="animated" transform="translate(26.185806, 52.000000)" fill="#FFFFFF" fill-opacity="0.92">
                                            <path d="M16.9896774,0 C21.4022544,0 24.9793548,3.581722 24.9793548,8 C24.9793548,12.418278 21.4022544,16 16.9896774,16 C12.5771004,16 9,12.418278 9,8 C9,3.581722 12.5771004,0 16.9896774,0 Z M4.49419355,4 C6.97626811,4 8.9883871,6.0147186 8.9883871,8.5 C8.9883871,10.9852814 6.97626811,13 4.49419355,13 C2.01211899,13 -2.09610107e-13,10.9852814 -2.09610107e-13,8.5 C-2.09610107e-13,6.0147186 2.01211899,4 4.49419355,4 Z" id="L" transform="translate(12.489677, 8.000000) scale(-1, 1) rotate(-180.000000) translate(-12.489677, -8.000000) "></path>
                                        </g>
                                    </g>
                                </g>
                                <g id="nose" transform="translate(131.500000, 121.652344) scale(-1, 1) rotate(-180.000000) translate(-131.500000, -121.652344) translate(106.000000, 92.652344)">
                                    <g id="path-3-link" fill="#000000" fill-rule="nonzero">
                                        <polygon id="path-3" points="25.829677 0 50.797419 35.910156 25.829677 57.652344 0.861935 35.910156"></polygon>
                                    </g>
                                    <g id="path-3-link" fill="#FFD438">
                                        <polygon id="path-3" points="25.829677 0 50.797419 35.910156 25.829677 57.652344 0.861935 35.910156"></polygon>
                                    </g>
                                </g>
                            </g>
                        </g>
                    </g>
                </g>
            </g>
        </g>
    </g>
</svg>